<svg width="67" height="46" viewBox="0 0 67 46" fill="none" xmlns="http://www.w3.org/2000/svg">
<g clip-path="url(#clip0_92_2198)">
<path d="M43.7989 30.0568L30.1669 6.47162L39.9601 0.871704L56.9114 30.0568H43.7989Z" fill="black"/>
<path d="M7.48914 26.7524L17.2824 21.1146L22.4641 30.0568H9.38951L7.48914 26.7524Z" fill="black"/>
<path d="M26.7083 45.1035H29.4955V33.8784H26.7083V45.1035Z" fill="black"/>
<path d="M61.6371 45.3683C58.5205 45.3683 56.6454 43.7665 56.5441 41.5089H59.4833C59.4833 42.2152 59.9267 43.2494 61.8271 43.2873C63.094 43.2873 63.6895 42.5431 63.6895 41.9882C63.6134 41.1053 62.4986 41.0296 61.3077 40.8404C60.1168 40.6513 59.1032 40.4368 58.3684 40.0585C57.4309 39.5792 56.7974 38.545 56.7974 37.3594C56.7974 35.354 58.5458 33.7649 61.4597 33.7649C64.2849 33.7649 66.0713 35.2405 66.2613 37.4351H63.4234C63.3981 36.8423 63.2841 35.909 61.6117 35.909C60.4842 35.909 59.7367 36.136 59.6733 36.918C59.6733 38.0657 62.0171 37.99 63.8415 38.4693C65.5898 38.9108 66.7047 39.9954 66.7047 41.5089C66.7047 44.2963 64.4369 45.3683 61.6371 45.3683Z" fill="black"/>
<path d="M18.9674 16.7382L28.7606 11.113L39.7448 30.0569H29.4955V32.8316H26.7082V30.0443L18.9674 16.7382Z" fill="black"/>
<path d="M19.2208 45.3684C15.9775 45.3684 13.3423 42.7323 13.3423 39.5414C13.3423 36.3126 15.9775 33.7649 19.2208 33.7649C20.4497 33.7649 21.5646 34.0929 22.5401 34.7613V30.0569H25.3273V45.1035H22.5401V44.3594C21.5646 44.99 20.4497 45.3684 19.2208 45.3684ZM16.0155 39.5414C16.0155 41.2819 17.5104 42.7324 19.2968 42.7324C21.0451 42.7324 22.5401 41.2819 22.5401 39.5414C22.5401 37.8009 21.0451 36.3126 19.2968 36.3126C17.5104 36.3126 16.0155 37.8009 16.0155 39.5414Z" fill="black"/>
<path d="M39.8208 30.0569H42.57V45.1035H39.8208V44.3594C38.8833 44.99 37.7304 45.3684 36.4635 45.3684C33.2582 45.3684 30.623 42.7323 30.623 39.5414C30.623 36.3126 33.2582 33.7649 36.4635 33.7649C37.7304 33.7649 38.8453 34.0929 39.8208 34.7613V30.0569ZM33.3342 39.5414C33.3342 41.2819 34.8292 42.7324 36.5395 42.7324C38.3259 42.7324 39.8208 41.2819 39.8208 39.5414C39.8208 37.8009 38.3259 36.3126 36.5395 36.3126C34.8292 36.3126 33.3342 37.8009 33.3342 39.5414Z" fill="black"/>
<path d="M49.3479 45.3683C46.1553 45.3683 43.5074 42.7323 43.5074 39.5414C43.5074 36.3126 46.1553 33.7649 49.3479 33.7649C50.5768 33.7649 51.7297 34.0928 52.6672 34.7613V33.8658H55.4544V45.1034H52.6672V44.3593C51.7297 44.9899 50.6148 45.3683 49.3479 45.3683ZM46.2186 39.5414C46.2186 41.2819 47.7136 42.7323 49.4619 42.7323C51.2103 42.7323 52.6672 41.2819 52.6672 39.5414C52.6672 37.8009 51.2103 36.3126 49.4619 36.3126C47.7136 36.3126 46.2186 37.8009 46.2186 39.5414Z" fill="black"/>
<path d="M3.09296 39.5414C3.09296 41.2819 4.58792 42.7323 6.33626 42.7323C8.12261 42.7323 9.61757 41.2819 9.61757 39.5414C9.61757 37.8009 8.12261 36.3126 6.33626 36.3126C4.58792 36.3126 3.09296 37.8009 3.09296 39.5414ZM6.26024 45.3683C3.05495 45.3683 0.407104 42.7323 0.407104 39.5414C0.407104 36.3126 3.05495 33.7649 6.26024 33.7649C7.48915 33.7649 8.64204 34.0928 9.61757 34.7613V33.8658H12.3668V45.1034H9.61757V44.3593C8.68005 44.9899 7.52716 45.3683 6.26024 45.3683Z" fill="black"/>
</g>
<defs>
<clipPath id="clip0_92_2198">
<rect width="67" height="46" fill="white"/>
</clipPath>
</defs>
</svg>
