<svg width="24" height="24" viewBox="0 0 24 24" fill="none" xmlns="http://www.w3.org/2000/svg">
<circle cx="12" cy="12" r="12" fill="#D9D9D9"/>
<path d="M8.93148 17V7.55024H12.0904C13.1884 7.55024 14.0928 7.74824 14.8038 8.14423C15.5238 8.53122 16.0548 9.0802 16.3968 9.79119C16.7478 10.4932 16.9233 11.3211 16.9233 12.2751C16.9233 13.2291 16.7478 14.0616 16.3968 14.7726C16.0548 15.4745 15.5283 16.0235 14.8173 16.4195C14.1063 16.8065 13.1974 17 12.0904 17H8.93148ZM10.7539 15.434H11.9959C12.7699 15.434 13.3774 15.308 13.8183 15.0561C14.2683 14.8041 14.5878 14.4441 14.7768 13.9761C14.9658 13.4991 15.0603 12.9321 15.0603 12.2751C15.0603 11.6091 14.9658 11.0422 14.7768 10.5742C14.5878 10.0972 14.2683 9.73269 13.8183 9.48069C13.3774 9.2287 12.7699 9.1027 11.9959 9.1027H10.7539V15.434Z" fill="black"/>
</svg>
