<svg width="149" height="149" viewBox="0 0 149 149" fill="none" xmlns="http://www.w3.org/2000/svg">
<circle cx="74.5" cy="74.5" r="74.5" fill="white"/>
<path d="M106.106 81.0903C106.106 96.1284 87.7559 107.3 79.0047 111.785C77.6128 112.503 76.0721 112.877 74.5088 112.879C72.9455 112.88 71.4041 112.508 70.0109 111.793C61.2658 107.312 42.894 96.1135 42.894 81.0903V59.3721C42.9081 58.3885 43.2781 57.4441 43.9345 56.7164C44.5909 55.9888 45.4884 55.5282 46.458 55.4213C54.8414 54.7789 62.8788 51.7815 69.6593 46.7687C71.0584 45.7187 72.756 45.1516 74.5001 45.1516C76.2441 45.1516 77.9417 45.7187 79.3408 46.7687C86.1214 51.7815 94.1587 54.7789 102.542 55.4213C103.511 55.5274 104.409 55.9872 105.065 56.7143C105.722 57.4413 106.092 58.3853 106.106 59.3685V81.0903Z" stroke="#323232" stroke-width="6.5" stroke-linecap="round" stroke-linejoin="round"/>
</svg>
