<svg width="24" height="24" viewBox="0 0 24 24" fill="none" xmlns="http://www.w3.org/2000/svg">
<path d="M19.0712 4.92893C22.9764 8.83417 22.9764 15.1658 19.0712 19.071C15.1659 22.9763 8.83425 22.9763 4.92905 19.071C1.02381 15.1658 1.02381 8.83413 4.92905 4.92893C8.83429 1.02369 15.166 1.02369 19.0712 4.92893Z" stroke="#323232" stroke-width="1.5" stroke-linecap="round" stroke-linejoin="round"/>
<path d="M9.27004 6.54504H14.73C16.234 6.54504 17.454 7.76404 17.454 9.27004V14.73C17.454 16.234 16.235 17.454 14.729 17.454H9.27004C7.76504 17.454 6.54504 16.235 6.54504 14.729V9.27004C6.54504 7.76504 7.76504 6.54504 9.27004 6.54504Z" stroke="#323232" stroke-width="1.5" stroke-linecap="round" stroke-linejoin="round"/>
<path d="M13.414 10.586C14.195 11.367 14.195 12.633 13.414 13.414C12.633 14.195 11.367 14.195 10.586 13.414C9.80499 12.633 9.80499 11.367 10.586 10.586C11.367 9.80499 12.633 9.80499 13.414 10.586Z" stroke="#323232" stroke-width="1.5" stroke-linecap="round" stroke-linejoin="round"/>
</svg>
