<svg width="36" height="46" viewBox="0 0 36 46" fill="none" xmlns="http://www.w3.org/2000/svg">
<g clip-path="url(#clip0_92_2209)">
<path d="M14.7563 17.7268V23.2172C14.7563 23.3383 14.7515 23.457 14.7442 23.578C14.737 23.6991 14.7273 23.813 14.7152 23.9293C14.7031 24.0504 14.6885 24.1714 14.6692 24.2901C14.6547 24.3993 14.6353 24.5038 14.6111 24.6106C14.5941 24.7008 14.5748 24.7862 14.553 24.8717C14.5481 24.8954 14.5409 24.9215 14.536 24.9429C14.5094 25.0521 14.4779 25.1589 14.4441 25.2657C14.4126 25.3654 14.3835 25.4627 14.3472 25.5577C14.3424 25.5743 14.3351 25.5885 14.3327 25.6004C14.2964 25.6977 14.2577 25.7927 14.2189 25.8876C14.2165 25.8995 14.2117 25.909 14.2068 25.9185C14.1633 26.0205 14.1173 26.1226 14.0713 26.2223C13.9744 26.4288 13.8679 26.6258 13.7542 26.8205C13.7517 26.8205 13.7517 26.8229 13.7493 26.8252C13.6961 26.9131 13.6452 26.9961 13.5896 27.0816C13.5823 27.0935 13.5726 27.1053 13.5654 27.1196C13.4419 27.3047 13.3112 27.4828 13.1732 27.6537C13.1006 27.7415 13.0304 27.8269 12.9554 27.91C12.8803 27.9978 12.8029 28.0786 12.7254 28.1593C12.5172 28.3705 12.2994 28.5699 12.067 28.7574L12.0331 28.7907C10.7622 29.8042 9.1404 30.4095 7.37332 30.4119C6.54303 30.4119 5.74422 30.279 5.00108 30.0321H5.0035C4.90425 29.9965 4.805 29.9609 4.70818 29.9277C4.61135 29.8897 4.51452 29.8517 4.4177 29.8114C4.22647 29.7306 4.04008 29.6381 3.85611 29.5431C3.79559 29.5099 3.73749 29.479 3.6794 29.4458C3.58499 29.3936 3.49543 29.3366 3.40344 29.2844C3.27515 29.2037 3.15169 29.123 3.03066 29.0352C2.9653 28.9853 2.89995 28.9402 2.83701 28.8927C2.77407 28.8429 2.71114 28.793 2.64578 28.7432C2.52232 28.6411 2.40371 28.5367 2.28752 28.4299C2.2851 28.4251 2.28268 28.4251 2.28026 28.4227C2.21248 28.361 2.14954 28.2969 2.08661 28.2352C1.97526 28.126 1.86391 28.0192 1.7695 27.8958C1.72351 27.8388 1.67267 27.7842 1.6291 27.7272C1.47418 27.5397 1.33136 27.3475 1.19822 27.1481C1.10866 27.0151 1.02394 26.8775 0.944056 26.7398C0.905326 26.6686 0.866595 26.5997 0.827865 26.5285C0.789134 26.4549 0.752824 26.3861 0.716514 26.3125C0.680204 26.2389 0.646315 26.1653 0.614847 26.0894C0.580958 26.0158 0.55191 25.9422 0.520441 25.871C0.488973 25.795 0.459925 25.7191 0.430877 25.6431C0.40425 25.5672 0.375202 25.4888 0.350995 25.4129C0.326789 25.3345 0.302582 25.2562 0.278375 25.1779C0.232383 25.0212 0.193653 24.8622 0.157343 24.7008C0.145239 24.658 0.137977 24.6106 0.130715 24.5678C0.113771 24.4895 0.0992469 24.4112 0.0895643 24.3328C0.0871436 24.3139 0.084723 24.2972 0.0823023 24.2783C0.0653577 24.1738 0.0508338 24.067 0.0411512 23.9625C0.0387305 23.9293 0.0363098 23.9008 0.0338892 23.87C0.0266272 23.7869 0.0169446 23.7014 0.0145239 23.6184C0.0121033 23.5923 0.00968263 23.5638 0.0121033 23.5377C0.00484131 23.4285 0 23.3193 0 23.2101V17.7363C0 16.6919 0.861754 15.8445 1.92926 15.8445C2.99435 15.8445 3.85853 16.6919 3.85853 17.7363V23.1769C3.85853 23.5305 3.9142 23.8747 4.02071 24.1975C4.46611 25.6004 5.80231 26.633 7.3709 26.6306C7.57908 26.6306 7.78241 26.6116 7.9809 26.5784C7.99059 26.5784 8.00269 26.576 8.01237 26.5736C8.10436 26.557 8.19392 26.5356 8.28349 26.5119C8.29801 26.5072 8.31253 26.5048 8.32706 26.5C8.41662 26.4739 8.50619 26.4478 8.59575 26.4146C8.86444 26.3173 9.11861 26.1843 9.351 26.03C9.37036 26.0182 9.38731 26.0063 9.40667 25.9944C9.46961 25.9517 9.53012 25.9042 9.58822 25.8568C9.61243 25.8378 9.63663 25.8188 9.65842 25.7974L9.83755 25.636C9.89564 25.5814 9.95374 25.5268 10.007 25.4675C10.0433 25.4271 10.0796 25.3844 10.1135 25.3417C10.4233 24.9619 10.6557 24.518 10.784 24.0361C10.8107 23.9269 10.8373 23.813 10.8518 23.7014C10.8687 23.5923 10.8833 23.4831 10.8881 23.3691C10.8905 23.3074 10.893 23.2457 10.893 23.1792V17.7434C10.893 16.699 11.7571 15.8492 12.8246 15.8492C13.8897 15.8492 14.7563 16.6966 14.7563 17.7434V17.7268Z" fill="black"/>
<path d="M23.1076 24.6115H23.0664C22.9672 24.6115 22.8679 24.6041 22.7711 24.5892C22.8825 24.5991 22.9962 24.6066 23.1076 24.6115Z" fill="black"/>
<path d="M36 28.0596C36 28.8762 35.8669 29.6595 35.6127 30.3858C35.5788 30.4831 35.5449 30.5781 35.5086 30.673C35.4675 30.7704 35.4312 30.8629 35.3876 30.9579C35.3053 31.1454 35.2109 31.3306 35.1141 31.5086C35.0826 31.5679 35.0487 31.6249 35.0148 31.6819C34.9616 31.7744 34.9035 31.8623 34.8502 31.9525C34.7679 32.0759 34.6832 32.1993 34.596 32.318C34.5452 32.3821 34.4992 32.4438 34.4508 32.5079C34.4 32.5696 34.3491 32.6314 34.2983 32.6954C34.1942 32.8165 34.0901 32.9328 33.9788 33.0468C33.9739 33.0468 33.9739 33.0515 33.9691 33.0539C33.9062 33.1203 33.8432 33.1821 33.7779 33.2438C33.6665 33.353 33.5576 33.4621 33.4317 33.5547C33.3736 33.5998 33.3179 33.6497 33.2623 33.6924C33.0686 33.8443 32.875 33.9844 32.6716 34.1149C32.5361 34.2004 32.3957 34.2858 32.2553 34.3642C32.1826 34.4021 32.11 34.4377 32.0398 34.4781C31.9648 34.5161 31.8946 34.5517 31.8195 34.5873C31.7445 34.6229 31.6719 34.6537 31.592 34.687C31.517 34.7178 31.4443 34.7487 31.3693 34.7796C31.2918 34.808 31.2144 34.8389 31.1369 34.865C31.0595 34.8911 30.9796 34.9172 30.9021 34.9433C30.8222 34.9671 30.7424 34.9908 30.6625 35.0122C30.5027 35.0597 30.3405 35.0976 30.1783 35.1332C30.1348 35.1451 30.0864 35.1522 30.0428 35.1617C29.9629 35.1783 29.883 35.1902 29.8031 35.2021C29.7862 35.2068 29.7668 35.2068 29.7499 35.2116C29.641 35.2282 29.5344 35.2401 29.4279 35.2519C29.3941 35.2567 29.3626 35.2567 29.3335 35.259C29.2464 35.2685 29.1617 35.2757 29.0769 35.278C29.0479 35.278 29.0213 35.2828 28.9922 35.278C28.8809 35.2875 28.7695 35.2899 28.6582 35.2899H23.0761C22.0086 35.2899 21.1445 34.4449 21.1445 33.3981C21.1445 32.8758 21.3599 32.4035 21.7109 32.0617C22.0619 31.7199 22.5412 31.5062 23.0737 31.5062H28.6219C28.9825 31.5062 29.3335 31.4516 29.6627 31.3496C31.0934 30.9128 32.1463 29.6025 32.1439 28.0643C32.1439 27.8602 32.127 27.6608 32.0907 27.4662C32.0907 27.4567 32.0858 27.4472 32.0858 27.4377C32.0689 27.3475 32.0495 27.2597 32.0229 27.1695C32.0229 27.1552 32.0156 27.141 32.0108 27.1291C31.9842 27.0389 31.9575 26.9511 31.9236 26.8656C31.8244 26.6021 31.6888 26.3553 31.5315 26.125C31.517 26.1084 31.5049 26.0894 31.4928 26.0728C31.4492 26.0111 31.4008 25.9517 31.3524 25.8948C31.333 25.871 31.3112 25.8473 31.2918 25.8259L31.1272 25.6479C31.0691 25.5933 31.0135 25.5364 30.953 25.4818C30.9118 25.4462 30.8682 25.4105 30.8271 25.3773C30.4398 25.0735 29.9871 24.8456 29.4957 24.7174C29.3844 24.6889 29.2682 24.6652 29.152 24.6486C29.0406 24.632 28.9293 24.6201 28.8131 24.6154C28.7477 24.6106 28.6872 24.6106 28.6194 24.6106H23.1197C23.0084 24.6059 22.8946 24.5987 22.7832 24.5892C22.7784 24.5892 22.7784 24.5892 22.7736 24.5892C22.1781 24.5394 21.602 24.4207 21.0597 24.2403V24.2356C20.9629 24.2047 20.8637 24.1691 20.7668 24.1335C20.67 24.0955 20.5732 24.0599 20.4764 24.0172C20.2851 23.9365 20.0987 23.8439 19.9172 23.749C19.8542 23.7157 19.7961 23.6849 19.7381 23.6516C19.6461 23.5994 19.5541 23.5424 19.4621 23.4878C19.3338 23.4071 19.2103 23.3264 19.0893 23.241C19.024 23.1911 18.9586 23.1437 18.8957 23.0986C18.8327 23.0487 18.7698 22.9989 18.7044 22.949C18.581 22.8469 18.4624 22.7425 18.3462 22.6333C18.3462 22.6286 18.3413 22.6286 18.3389 22.6262C18.2736 22.5621 18.2082 22.5004 18.1453 22.4387C18.0339 22.3295 17.9226 22.2203 17.8306 22.0992C17.7846 22.0423 17.7337 21.99 17.6902 21.9331C17.5353 21.7455 17.3924 21.5533 17.2593 21.3539C17.1722 21.221 17.085 21.0833 17.0076 20.9456C16.9664 20.8744 16.9301 20.8056 16.8914 20.7344C16.8502 20.6608 16.8163 20.5919 16.78 20.5183C16.7437 20.4448 16.7098 20.3712 16.6783 20.2952C16.6445 20.2216 16.613 20.148 16.5839 20.0745C16.5549 20.0009 16.5234 19.9225 16.4968 19.8466C16.4677 19.773 16.4411 19.6923 16.4169 19.6163C16.3903 19.538 16.3661 19.462 16.3443 19.3813C16.2983 19.2247 16.2571 19.0633 16.2208 18.9042C16.2112 18.8615 16.2039 18.8164 16.1942 18.7713C16.1773 18.693 16.1627 18.6146 16.1531 18.5363C16.1531 18.5173 16.1482 18.5007 16.1458 18.4817C16.1289 18.3773 16.1168 18.2704 16.1046 18.166C16.1046 18.1351 16.0998 18.1019 16.0974 18.0734C16.0901 17.9903 16.0804 17.9073 16.078 17.8218C16.078 17.7933 16.0732 17.7696 16.078 17.7411C16.0708 17.6319 16.0659 17.5204 16.0659 17.4135V15.5763H19.9269V17.3779C19.9269 17.734 19.9801 18.0782 20.0866 18.401C20.5296 19.8015 21.861 20.8317 23.4271 20.8317H28.6872C28.8107 20.8317 28.9317 20.8364 29.0552 20.8435C29.1786 20.8507 29.2948 20.8602 29.4134 20.872C29.5369 20.8815 29.6603 20.9005 29.7814 20.9171C29.8128 20.9219 29.8467 20.9242 29.8806 20.9337C29.9556 20.9432 30.0331 20.9599 30.1081 20.9741C30.1977 20.9907 30.2873 21.0097 30.372 21.0311C30.3962 21.0358 30.4228 21.0429 30.4446 21.0477C30.556 21.0762 30.6649 21.1046 30.7738 21.1379C30.8755 21.1664 30.9747 21.1972 31.0716 21.2328C31.0885 21.2376 31.1006 21.2447 31.1151 21.2471C31.2144 21.2827 31.3088 21.3207 31.408 21.3563C31.4177 21.361 31.4298 21.3658 31.4371 21.3681C31.5412 21.4109 31.6428 21.4536 31.7469 21.4987C31.9575 21.596 32.1584 21.7004 32.3569 21.812C32.3569 21.812 32.3618 21.812 32.3618 21.8191C32.4489 21.8714 32.5361 21.9212 32.6256 21.9734C32.6377 21.9829 32.6498 21.99 32.6644 21.9995C32.8532 22.1206 33.0347 22.2488 33.209 22.3841C33.2961 22.4553 33.3857 22.5265 33.4729 22.5977C33.56 22.6713 33.6423 22.7473 33.7246 22.8232C33.94 23.025 34.1458 23.241 34.337 23.4665L34.3685 23.4997C35.4021 24.7435 36.0218 26.3363 36.0218 28.0667L36 28.0596Z" fill="black"/>
<path d="M23.6643 24.6106C23.582 24.6155 23.4997 24.6155 23.4174 24.6155C23.3133 24.6155 23.2116 24.6155 23.1075 24.6106H23.6643Z" fill="black"/>
<path d="M21.1904 12.6874V7.19707C21.1904 7.07601 21.1953 6.95732 21.2025 6.83627C21.2098 6.71521 21.2195 6.60127 21.2316 6.48496C21.2437 6.3639 21.2582 6.24284 21.2776 6.12416C21.2921 6.01496 21.3115 5.91052 21.3357 5.80371C21.3526 5.7135 21.372 5.62805 21.3938 5.5426C21.3986 5.51886 21.4059 5.49275 21.4107 5.47139C21.4373 5.3622 21.4688 5.25538 21.5027 5.14856C21.5342 5.04887 21.5632 4.95155 21.5995 4.8566C21.6044 4.83998 21.6116 4.82574 21.614 4.81387C21.6504 4.71655 21.6891 4.6216 21.7278 4.52665C21.7302 4.51478 21.7351 4.50529 21.7399 4.49579C21.7835 4.39373 21.8295 4.29166 21.8755 4.19196C21.9723 3.98545 22.0788 3.78843 22.1926 3.59379C22.195 3.59379 22.195 3.59141 22.1974 3.58904C22.2507 3.50121 22.3015 3.41813 22.3572 3.33268C22.3644 3.32081 22.3741 3.30894 22.3814 3.2947C22.5048 3.10955 22.6356 2.93152 22.7735 2.76062C22.8462 2.67279 22.9164 2.58734 22.9914 2.50426C23.0664 2.41643 23.1439 2.33572 23.2214 2.25502C23.4295 2.04376 23.6474 1.84437 23.8798 1.65685L23.9137 1.62361C25.1821 0.610042 26.8015 0.00474741 28.571 0C29.4013 0 30.2001 0.132927 30.9433 0.379793H30.9408C31.0401 0.415398 31.1393 0.451004 31.2362 0.484236C31.333 0.522215 31.4298 0.560194 31.5266 0.600547C31.7179 0.681253 31.9043 0.773827 32.0882 0.868776C32.1487 0.902007 32.2068 0.932866 32.2649 0.966097C32.3593 1.01832 32.4489 1.07529 32.5409 1.12751C32.6692 1.20822 32.7926 1.28892 32.9137 1.37675C32.979 1.4266 33.0444 1.4717 33.1073 1.51917C33.1703 1.56902 33.2332 1.61887 33.2986 1.66871C33.422 1.77078 33.5406 1.87523 33.6568 1.98204C33.6592 1.98679 33.6617 1.98679 33.6641 1.98916C33.7319 2.05088 33.7948 2.11497 33.8577 2.17669C33.9691 2.28588 34.0804 2.39269 34.1748 2.51613C34.2208 2.57309 34.2717 2.62769 34.3152 2.68466C34.4701 2.87218 34.613 3.06445 34.7461 3.26384C34.8357 3.39677 34.9204 3.53444 35.0003 3.67212C35.039 3.74333 35.0777 3.81217 35.1165 3.88338C35.1552 3.95696 35.1915 4.0258 35.2278 4.09939C35.2641 4.17297 35.298 4.24656 35.3295 4.32251C35.3634 4.3961 35.3924 4.46968 35.4239 4.54089C35.4554 4.61685 35.4844 4.69281 35.5135 4.76877C35.5401 4.84473 35.5691 4.92306 35.5933 4.99902C35.6175 5.07735 35.6417 5.15568 35.666 5.23402C35.7119 5.39068 35.7507 5.54972 35.787 5.71113C35.7991 5.75386 35.8064 5.80133 35.8136 5.84406C35.8306 5.92239 35.8451 6.00072 35.8548 6.07905C35.8572 6.09804 35.8596 6.11466 35.862 6.13365C35.879 6.23809 35.8935 6.34491 35.9032 6.44935C35.9056 6.48258 35.908 6.51107 35.9104 6.54193C35.9177 6.62501 35.9274 6.71046 35.9298 6.79354C35.9322 6.81965 35.9346 6.84813 35.9322 6.87425C35.9395 6.98344 35.9443 7.09263 35.9443 7.20182V12.6756C35.9443 13.72 35.0826 14.5674 34.0151 14.5674C32.95 14.5674 32.0858 13.72 32.0858 12.6756V7.23505C32.0858 6.88137 32.0301 6.53718 31.9236 6.21436C31.4782 4.8115 30.142 3.77894 28.5734 3.78131C28.3653 3.78131 28.1619 3.8003 27.9634 3.83353C27.9537 3.83353 27.9416 3.83591 27.932 3.83828C27.84 3.85489 27.7504 3.87626 27.6608 3.9C27.6463 3.90474 27.6318 3.90712 27.6173 3.91186C27.5277 3.93797 27.4381 3.96409 27.3486 3.99732C27.0799 4.09464 26.8257 4.22757 26.5933 4.38186C26.574 4.39372 26.557 4.40559 26.5377 4.41746C26.4747 4.46019 26.4142 4.50766 26.3561 4.55514C26.3319 4.57413 26.3077 4.59312 26.2859 4.61448L26.1068 4.77589C26.0487 4.83049 25.9906 4.88508 25.9373 4.94442C25.901 4.98478 25.8647 5.0275 25.8308 5.07023C25.521 5.45002 25.2886 5.89391 25.1603 6.37577C25.1337 6.48496 25.1071 6.5989 25.0925 6.71046C25.0756 6.81965 25.0611 6.92884 25.0562 7.04278C25.0538 7.10449 25.0514 7.16621 25.0514 7.23267V12.6708C25.0514 13.7153 24.1872 14.5627 23.1221 14.5627H23.1197C22.0546 14.5627 21.1904 13.7153 21.1904 12.6708V12.6874Z" fill="black"/>
<path d="M16.0538 7.65992V1.89419C16.0538 0.84976 16.918 0.00234795 17.9831 0.00234795C19.0506 0.00234795 19.9148 0.84976 19.9148 1.89419V7.65992C19.9148 8.70435 19.0506 9.55176 17.9855 9.55176C16.9204 9.55176 16.0538 8.70435 16.0538 7.65754V7.65992Z" fill="black"/>
<path d="M19.9171 44.0844V33.3813C19.9171 32.3365 19.0534 31.4895 17.9879 31.4895H17.9854C16.9199 31.4895 16.0562 32.3365 16.0562 33.3813V44.0844C16.0562 45.1292 16.9199 45.9762 17.9854 45.9762H17.9879C19.0534 45.9762 19.9171 45.1292 19.9171 44.0844Z" fill="black"/>
<path d="M17.9854 30.4095C19.0509 30.4095 19.9147 29.5625 19.9147 28.5177C19.9147 27.4729 19.0509 26.6259 17.9854 26.6259C16.9199 26.6259 16.0562 27.4729 16.0562 28.5177C16.0562 29.5625 16.9199 30.4095 17.9854 30.4095Z" fill="black"/>
<path d="M17.9854 14.5319C19.0509 14.5319 19.9147 13.6848 19.9147 12.64C19.9147 11.5952 19.0509 10.7482 17.9854 10.7482C16.9199 10.7482 16.0562 11.5952 16.0562 12.64C16.0562 13.6848 16.9199 14.5319 17.9854 14.5319Z" fill="black"/>
<path d="M14.7805 11.0497V12.64C14.7805 13.6868 13.9163 14.5319 12.8512 14.5319H12.8464C11.7813 14.5319 10.9171 13.6868 10.9171 12.64V11.071C10.9171 9.17681 9.33646 7.61491 7.40961 7.61728C6.97874 7.61728 6.56722 7.69324 6.18718 7.83329C5.80714 7.97334 5.45614 8.1751 5.15114 8.42672L4.89213 8.66409C4.27244 9.28837 3.88998 10.1429 3.88998 11.0758V12.64C3.88998 13.6845 3.0258 14.5319 1.95829 14.5319C1.42575 14.5319 0.941619 14.3206 0.593045 13.9764C0.24447 13.6322 0.0266113 13.1646 0.0266113 12.64V1.9014C0.0266113 0.854601 0.890786 0.00718881 1.95587 0.00718881C2.48842 0.00718881 2.97255 0.218448 3.32112 0.562635C3.6697 0.904449 3.88756 1.37919 3.88756 1.9014V4.40804L8.11644 0.555514C8.14307 0.529404 8.1697 0.503293 8.19875 0.479556C8.54006 0.182843 8.98788 0.00244141 9.48169 0.00244141C9.50832 0.00244141 9.53495 0.00244141 9.55916 0.00244141C10.5879 0.0427944 11.411 0.873591 11.411 1.89428C11.411 1.91327 11.411 1.93464 11.411 1.95125C11.394 2.48534 11.1568 2.96008 10.7816 3.29477L9.77944 4.21102C10.1764 4.34157 10.5613 4.50298 10.922 4.69763C13.224 5.91771 14.7805 8.30091 14.7854 11.0497H14.7805Z" fill="black"/>
<path d="M14.7805 42.5177V44.1081C14.7805 45.1549 13.9163 45.9999 12.8512 45.9999H12.8464C11.7813 45.9999 10.9171 45.1549 10.9171 44.1081V42.5391C10.9171 40.6449 9.33646 39.083 7.40961 39.0854C6.97874 39.0854 6.56722 39.1613 6.18718 39.3014C5.80714 39.4414 5.45614 39.6432 5.15114 39.8948L4.89213 40.1322C4.27244 40.7564 3.88998 41.611 3.88998 42.5438V44.1081C3.88998 45.1525 3.0258 45.9999 1.95829 45.9999C1.42575 45.9999 0.941619 45.7887 0.593045 45.4445C0.24447 45.1003 0.0266113 44.6303 0.0266113 44.1081V33.3695C0.0266113 32.3227 0.890786 31.4753 1.95829 31.4753C2.49084 31.4753 2.97497 31.6865 3.32354 32.0307C3.67212 32.3725 3.88998 32.8473 3.88998 33.3695V35.8761L8.11644 32.0212C8.14307 31.9951 8.1697 31.969 8.19875 31.9453C8.54006 31.6485 8.98788 31.4681 9.48169 31.4681C9.50832 31.4681 9.53495 31.4681 9.55916 31.4681C10.5879 31.5085 11.411 32.3393 11.411 33.36C11.411 33.379 11.411 33.4003 11.411 33.4169C11.394 33.951 11.1568 34.4258 10.7816 34.7605L9.77944 35.6767C10.1764 35.8073 10.5613 35.9687 10.922 36.1633C13.224 37.3834 14.7805 39.7666 14.7854 42.5154L14.7805 42.5177Z" fill="black"/>
<path d="M30.5002 17.4586C30.5002 17.9808 30.2848 18.4556 29.9338 18.7974C29.8902 18.8401 29.8442 18.8805 29.7982 18.9184C29.4642 19.1867 29.0357 19.3505 28.5685 19.3505C28.1014 19.3505 27.6753 19.1867 27.3413 18.9184C27.2929 18.8781 27.2493 18.8401 27.2057 18.7974C26.8547 18.4556 26.6393 17.9808 26.6393 17.461V15.7424C26.6465 15.6878 26.6465 15.6261 26.6465 15.5668H28.5685C29.6361 15.5668 30.4978 16.4118 30.5002 17.4586Z" fill="black"/>
<path d="M21.1904 44.0868C21.1904 43.5646 21.4059 43.0898 21.7569 42.748C21.8004 42.7053 21.8464 42.6649 21.8924 42.627C22.2265 42.3587 22.6549 42.1949 23.1221 42.1949C23.5893 42.1949 24.0153 42.3587 24.3494 42.627C24.3978 42.6673 24.4414 42.7053 24.4849 42.748C24.8359 43.0898 25.0514 43.5646 25.0514 44.0844V45.803C25.0441 45.8576 25.0441 45.9193 25.0441 45.9786H23.1221C22.0546 45.9786 21.1929 45.1336 21.1904 44.0868Z" fill="black"/>
</g>
<defs>
<clipPath id="clip0_92_2209">
<rect width="36" height="46" fill="white"/>
</clipPath>
</defs>
</svg>
