<svg width="40" height="40" viewBox="0 0 40 40" fill="none" xmlns="http://www.w3.org/2000/svg">
<circle cx="20" cy="20" r="20" fill="white"/>
<mask id="mask0_92_2134" style="mask-type:alpha" maskUnits="userSpaceOnUse" x="0" y="0" width="40" height="40">
<circle cx="20" cy="20" r="20" fill="#D9D9D9"/>
</mask>
<g mask="url(#mask0_92_2134)">
</g>
<g clip-path="url(#clip0_92_2134)">
<path d="M23.9853 22.2417V26.0332C23.9853 26.1168 23.9823 26.1987 23.9779 26.2823C23.9735 26.3659 23.9676 26.4446 23.9602 26.5249C23.9528 26.6085 23.944 26.6921 23.9322 26.7741C23.9234 26.8495 23.9116 26.9216 23.8968 26.9954C23.8865 27.0577 23.8747 27.1167 23.8614 27.1757C23.8585 27.1921 23.8541 27.2101 23.8511 27.2249C23.8349 27.3003 23.8158 27.3741 23.7951 27.4478C23.776 27.5167 23.7583 27.5839 23.7362 27.6494C23.7332 27.6609 23.7288 27.6708 23.7273 27.679C23.7052 27.7462 23.6816 27.8117 23.658 27.8773C23.6566 27.8855 23.6536 27.8921 23.6507 27.8986C23.6241 27.9691 23.5961 28.0396 23.5681 28.1084C23.5092 28.251 23.4443 28.3871 23.375 28.5215C23.3736 28.5215 23.3736 28.5231 23.3721 28.5248C23.3397 28.5854 23.3087 28.6428 23.2748 28.7018C23.2704 28.71 23.2645 28.7182 23.2601 28.7281C23.1849 28.8559 23.1053 28.9789 23.0213 29.0969C22.9771 29.1575 22.9343 29.2165 22.8886 29.2739C22.8429 29.3346 22.7958 29.3903 22.7486 29.446C22.6218 29.5919 22.4892 29.7296 22.3477 29.8591L22.3271 29.8821C21.5532 30.582 20.5657 31 19.4897 31.0016C18.9841 31.0016 18.4977 30.9098 18.0452 30.7394H18.0467C17.9862 30.7148 17.9258 30.6902 17.8669 30.6672C17.8079 30.641 17.7489 30.6148 17.69 30.5869C17.5735 30.5312 17.46 30.4673 17.348 30.4017C17.3112 30.3787 17.2758 30.3574 17.2404 30.3345C17.1829 30.2984 17.1284 30.2591 17.0724 30.223C16.9943 30.1673 16.9191 30.1115 16.8454 30.0509C16.8056 30.0165 16.7658 29.9853 16.7275 29.9525C16.6892 29.9181 16.6508 29.8837 16.611 29.8493C16.5359 29.7788 16.4636 29.7067 16.3929 29.6329C16.3914 29.6296 16.3899 29.6296 16.3885 29.628C16.3472 29.5854 16.3089 29.5411 16.2706 29.4985C16.2028 29.4231 16.1349 29.3493 16.0775 29.2641C16.0495 29.2247 16.0185 29.187 15.992 29.1477C15.8976 29.0182 15.8107 28.8854 15.7296 28.7477C15.6751 28.6559 15.6235 28.5609 15.5748 28.4658C15.5513 28.4166 15.5277 28.3691 15.5041 28.3199C15.4805 28.2691 15.4584 28.2215 15.4363 28.1707C15.4142 28.1199 15.3935 28.0691 15.3744 28.0166C15.3538 27.9658 15.3361 27.915 15.3169 27.8658C15.2977 27.8134 15.2801 27.7609 15.2624 27.7085C15.2462 27.656 15.2285 27.6019 15.2137 27.5495C15.199 27.4954 15.1842 27.4413 15.1695 27.3872C15.1415 27.279 15.1179 27.1692 15.0958 27.0577C15.0884 27.0282 15.084 26.9954 15.0796 26.9659C15.0693 26.9118 15.0604 26.8577 15.0545 26.8036C15.0531 26.7905 15.0516 26.779 15.0501 26.7659C15.0398 26.6938 15.031 26.62 15.0251 26.5479C15.0236 26.5249 15.0221 26.5053 15.0206 26.484C15.0162 26.4266 15.0103 26.3676 15.0088 26.3102C15.0074 26.2922 15.0059 26.2725 15.0074 26.2545C15.0029 26.1791 15 26.1037 15 26.0283V22.2482C15 21.527 15.5247 20.9418 16.1747 20.9418C16.8233 20.9418 17.3495 21.527 17.3495 22.2482V26.0053C17.3495 26.2496 17.3834 26.4872 17.4482 26.7102C17.7195 27.679 18.5331 28.392 19.4882 28.3904C19.615 28.3904 19.7388 28.3773 19.8596 28.3543C19.8655 28.3543 19.8729 28.3527 19.8788 28.351C19.9348 28.3396 19.9894 28.3248 20.0439 28.3084C20.0527 28.3051 20.0616 28.3035 20.0704 28.3002C20.125 28.2822 20.1795 28.2642 20.234 28.2412C20.3976 28.174 20.5524 28.0822 20.6939 27.9757C20.7057 27.9675 20.716 27.9593 20.7278 27.9511C20.7661 27.9216 20.803 27.8888 20.8384 27.856C20.8531 27.8429 20.8678 27.8298 20.8811 27.815L20.9902 27.7035C21.0255 27.6658 21.0609 27.6281 21.0934 27.5872C21.1155 27.5593 21.1376 27.5298 21.1582 27.5003C21.3469 27.238 21.4884 26.9315 21.5665 26.5987C21.5827 26.5233 21.5989 26.4446 21.6078 26.3676C21.6181 26.2922 21.6269 26.2168 21.6299 26.1381C21.6313 26.0955 21.6328 26.0528 21.6328 26.007V22.2531C21.6328 21.5319 22.159 20.9451 22.809 20.9451C23.4576 20.9451 23.9853 21.5303 23.9853 22.2531V22.2417Z" fill="black"/>
<path d="M24 17.6306V18.7289C24 19.4518 23.4738 20.0354 22.8253 20.0354H22.8223C22.1738 20.0354 21.6476 19.4518 21.6476 18.7289V17.6454C21.6476 16.3373 20.6851 15.2587 19.5118 15.2603C19.2494 15.2603 18.9989 15.3128 18.7675 15.4095C18.5361 15.5062 18.3223 15.6455 18.1366 15.8193L17.9789 15.9832C17.6016 16.4143 17.3687 17.0044 17.3687 17.6487V18.7289C17.3687 19.4502 16.8425 20.0354 16.1925 20.0354C15.8682 20.0354 15.5734 19.8895 15.3611 19.6518C15.1489 19.4141 15.0162 19.0912 15.0162 18.7289V11.3131C15.0162 10.5902 15.5424 10.005 16.191 10.005C16.5153 10.005 16.81 10.1509 17.0223 10.3886C17.2345 10.6246 17.3672 10.9525 17.3672 11.3131V13.0441L19.9422 10.3836C19.9584 10.3656 19.9746 10.3476 19.9923 10.3312C20.2002 10.1263 20.4728 10.0017 20.7735 10.0017C20.7897 10.0017 20.806 10.0017 20.8207 10.0017C21.4471 10.0296 21.9483 10.6033 21.9483 11.3082C21.9483 11.3213 21.9483 11.336 21.9483 11.3475C21.938 11.7163 21.7935 12.0442 21.565 12.2753L20.9548 12.908C21.1965 12.9982 21.4309 13.1097 21.6505 13.2441C23.0523 14.0866 24 15.7324 24.003 17.6306H24Z" fill="black"/>
</g>
<defs>
<clipPath id="clip0_92_2134">
<rect width="9" height="21" fill="white" transform="translate(15 10)"/>
</clipPath>
</defs>
</svg>
