<svg width="22" height="22" viewBox="0 0 22 22" fill="none" xmlns="http://www.w3.org/2000/svg">
<path d="M6.55546 1.00012H15.4444C15.7391 1.00012 16.0217 1.11718 16.2301 1.32556C16.4385 1.53393 16.5556 1.81654 16.5556 2.11122V8.77782C16.5556 10.2512 15.9702 11.6643 14.9284 12.7062C13.8865 13.748 12.4734 14.3333 10.9999 14.3333C9.52651 14.3333 8.11342 13.748 7.07154 12.7062C6.02966 11.6643 5.44434 10.2512 5.44434 8.77782V2.11122C5.44434 1.81654 5.5614 1.53393 5.76978 1.32556C5.97815 1.11718 6.26077 1.00012 6.55546 1.00012Z" stroke="#323232" stroke-width="2" stroke-linecap="round" stroke-linejoin="round"/>
<path d="M5.90747 11H5.44449C4.26574 11 3.13526 10.5317 2.30176 9.69825C1.46826 8.86477 1 7.73432 1 6.55559V4.33339C1 4.03871 1.11706 3.7561 1.32544 3.54772C1.53382 3.33935 1.81643 3.22229 2.11112 3.22229H5.44449" stroke="#323232" stroke-width="2" stroke-linecap="round" stroke-linejoin="round"/>
<path d="M16.0923 11H16.5555C17.7343 11 18.8647 10.5317 19.6982 9.69825C20.5317 8.86477 21 7.73432 21 6.55559V4.33339C21 4.03871 20.8829 3.7561 20.6746 3.54772C20.4662 3.33935 20.1836 3.22229 19.8889 3.22229H16.5555" stroke="#323232" stroke-width="2" stroke-linecap="round" stroke-linejoin="round"/>
<path d="M15.0738 17.6666H6.9273C6.6941 17.6666 6.4668 17.74 6.27761 17.8764C6.08843 18.0127 5.94694 18.2051 5.87319 18.4264L5.50282 19.5375C5.44715 19.7045 5.43196 19.8823 5.45851 20.0564C5.48506 20.2304 5.55259 20.3957 5.65553 20.5385C5.75848 20.6813 5.89389 20.7976 6.0506 20.8779C6.20732 20.9581 6.38086 20.9999 6.55692 20.9999H15.4442C15.6203 20.9999 15.7938 20.9581 15.9505 20.8779C16.1072 20.7976 16.2426 20.6813 16.3456 20.5385C16.4485 20.3957 16.5161 20.2304 16.5426 20.0564C16.5692 19.8823 16.554 19.7045 16.4983 19.5375L16.1279 18.4264C16.0542 18.2051 15.9127 18.0127 15.7235 17.8764C15.5343 17.74 15.307 17.6666 15.0738 17.6666Z" stroke="#323232" stroke-width="2" stroke-linecap="round" stroke-linejoin="round"/>
<path d="M11 14.3333V17.6666" stroke="#323232" stroke-width="2" stroke-linecap="round" stroke-linejoin="round"/>
</svg>
