<svg width="20" height="20" viewBox="0 0 20 20" fill="none" xmlns="http://www.w3.org/2000/svg">
<path d="M7.87903 12.121C9.05043 13.2928 10.9499 13.293 12.1217 12.1216C13.2934 10.9502 13.2937 9.05075 12.1223 7.879C11.5595 7.31604 10.7961 6.99983 10 7" stroke="#323232" stroke-width="1.5" stroke-linecap="round" stroke-linejoin="round"/>
<path d="M3.63608 3.636C0.12134 7.1507 0.1213 12.8492 3.636 16.3639C7.1507 19.8786 12.8492 19.8787 16.3639 16.364C19.8786 12.8493 19.8787 7.1508 16.364 3.63608C14.6762 1.94825 12.387 1.00002 10.0001 1" stroke="#323232" stroke-width="1.5" stroke-linecap="round" stroke-linejoin="round"/>
<path d="M10.0001 4C13.3138 4 16.0001 6.68629 16.0001 10C16.0001 13.3137 13.3138 16 10.0001 16C6.68641 16 4.00012 13.3137 4.00012 10" stroke="#323232" stroke-width="1.5" stroke-linecap="round" stroke-linejoin="round"/>
</svg>
