<svg width="136" height="40" viewBox="0 0 136 40" fill="none" xmlns="http://www.w3.org/2000/svg">
<g clip-path="url(#clip0_92_2223)">
<path d="M109.996 4.00032C111.101 4.00032 111.996 3.10482 111.996 2.00016C111.996 0.895502 111.101 0 109.996 0C108.891 0 107.996 0.895502 107.996 2.00016C107.996 3.10482 108.891 4.00032 109.996 4.00032Z" fill="black"/>
<path d="M133.991 39.952C135.096 39.952 135.992 39.0565 135.992 37.9518C135.992 36.8472 135.096 35.9517 133.991 35.9517C132.887 35.9517 131.991 36.8472 131.991 37.9518C131.991 39.0565 132.887 39.952 133.991 39.952Z" fill="black"/>
<path d="M20.0016 0V34.0027C20.0016 34.7047 19.8798 35.3778 19.6554 35.9997C19.0528 37.7081 17.7001 39.0608 15.9981 39.657C15.373 39.8814 14.6999 40.0032 14.0011 40.0032C13.3023 40.0032 12.626 39.8814 12.0042 39.657C11.2605 39.4006 10.581 38.9903 10.0072 38.4742C9.42704 38.9903 8.74749 39.3942 8.00385 39.657C7.3788 39.8814 6.70246 40.0032 6.00048 40.0032C5.2985 40.0032 4.62537 39.8814 4.00353 39.657C2.30147 39.0608 0.948794 37.7081 0.346182 35.9997C0.121805 35.3746 0 34.7015 0 34.0027V0H4.00032V34.0027C4.00032 35.1086 4.89783 35.9997 5.99727 35.9997C7.09672 35.9997 8.00064 35.1086 8.00064 34.0027V0H12.001V34.0027C12.001 35.1086 12.8921 35.9997 13.9979 35.9997C15.1038 35.9997 15.9949 35.1086 15.9949 34.0027V0H19.9952H20.0016Z" fill="black"/>
<path d="M101.992 5.99727V40H97.9918V5.99727C97.9918 4.89462 97.0911 4.00032 95.9948 4.00032C94.8986 4.00032 93.9882 4.89462 93.9882 5.99727V33.1757L93.9402 33.2238L93.9882 33.2719V40.0032H89.9879V5.99727C89.9879 4.89462 89.0936 4.00032 87.991 4.00032C86.8883 4.00032 85.9908 4.89462 85.9908 5.99727V40H81.9905V5.99727C81.9905 5.2985 82.1123 4.62537 82.3335 4.00032C82.9393 2.29185 84.2887 0.942383 85.9908 0.342976C86.6158 0.115394 87.289 0 87.991 0C88.6929 0 89.3629 0.118599 89.9879 0.342976C90.7284 0.599407 91.4079 1.0097 91.9849 1.52576C92.5618 1.0097 93.2414 0.605818 93.985 0.342976C94.6101 0.115394 95.2896 0 95.9916 0C96.6936 0 97.3635 0.118599 97.9886 0.342976C99.6906 0.939178 101.04 2.28864 101.646 4.00032C101.867 4.62537 101.989 5.2985 101.989 5.99727H101.992Z" fill="black"/>
<path d="M93.9914 33.179V33.2719L93.9434 33.2238L93.9914 33.179Z" fill="black"/>
<path d="M33.6565 9.9976C33.586 9.79566 33.5058 9.59693 33.4161 9.41102C33.1693 8.88854 32.8455 8.42055 32.4673 7.99744C32.3263 7.83397 32.166 7.6737 32.0025 7.52625C31.5826 7.14802 31.105 6.83068 30.5857 6.58707C30.3998 6.49412 30.2043 6.41078 29.9991 6.34026C29.3741 6.12229 28.701 6.00049 28.0022 6.00049C27.3034 6.00049 26.6303 6.12229 26.0052 6.34026C25.0468 6.68003 24.1974 7.25379 23.5339 7.99744C23.0146 8.57121 22.6107 9.25075 22.3447 9.9944C22.1235 10.6194 22.0017 11.299 22.0017 11.9946V17.995H26.0052V11.9946C26.0052 10.8919 26.8963 9.9944 28.0022 9.9944C29.108 9.9944 29.9991 10.8919 29.9991 11.9946V23.9955H28.0022C27.3002 23.9955 26.6303 24.1173 26.0052 24.3385C25.0468 24.6751 24.1974 25.2488 23.5339 25.9925C23.0146 26.5662 22.6107 27.2458 22.3447 27.999C22.1235 28.6241 22.0017 29.294 22.0017 29.996V33.9963C22.0017 34.6983 22.1235 35.3682 22.3447 35.9933C22.9505 37.7017 24.3 39.0512 26.0052 39.6506C26.6303 39.8782 27.3002 39.9968 28.0022 39.9968C28.7042 39.9968 29.3741 39.875 29.9991 39.6506C30.7492 39.3878 31.4255 38.9839 31.9993 38.4678C32.7397 37.8011 33.3135 36.9581 33.6533 35.9933C33.8745 35.3682 33.9963 34.6983 33.9963 33.9963V12.001C33.9963 11.3022 33.8745 10.6227 33.6533 10.0008L33.6565 9.9976ZM29.9991 33.9995C29.9991 35.1086 29.1048 35.9965 28.0022 35.9965C26.8995 35.9965 26.0052 35.1054 26.0052 33.9995V29.9992C26.0052 28.8901 26.8963 28.0023 28.0022 28.0023C29.108 28.0023 29.9991 28.8933 29.9991 29.9992V33.9995Z" fill="black"/>
<path d="M47.991 21.9985C48.693 21.9985 49.3629 21.8767 49.988 21.6556C50.9464 21.319 51.7958 20.7452 52.4593 20.0016C52.9786 19.4278 53.3825 18.7483 53.6453 18.0014C53.8729 17.3764 53.9915 16.7032 53.9915 16.0045V12.0009C53.9915 11.3022 53.8697 10.629 53.6453 10.004C53.0459 8.29551 51.6932 6.94605 49.988 6.34664C49.3629 6.12547 48.693 6.00366 47.991 6.00366C47.289 6.00366 46.6191 6.12547 45.9941 6.34664C45.244 6.60948 44.5677 7.01336 43.9939 7.52943C43.2535 8.19615 42.6797 9.03916 42.3399 10.004C42.1188 10.629 41.9969 11.3022 41.9969 12.0009V34.0027C41.9969 34.7047 42.1188 35.3842 42.3399 36.0093C42.4104 36.2112 42.4906 36.4067 42.5803 36.5959C42.8271 37.1151 43.1509 37.5863 43.5291 38.0094C43.6702 38.1729 43.8304 38.33 43.9939 38.4774C44.4138 38.8557 44.8914 39.173 45.4107 39.423C45.5966 39.5128 45.7921 39.5961 45.9973 39.6698C46.6223 39.8878 47.2954 40.0096 47.9942 40.0096C48.693 40.0096 49.3661 39.8878 49.9912 39.6698C50.9496 39.33 51.799 38.7531 52.4625 38.0126C52.9818 37.4357 53.3857 36.7561 53.6485 36.0157C53.8761 35.3906 53.9947 34.7111 53.9947 34.0091V28.0118H49.9912V34.0091C49.9912 35.1182 49.1001 36.0157 47.9942 36.0157C46.8884 36.0157 45.9973 35.1182 45.9973 34.0091V22.0082H47.9942L47.991 21.9985ZM45.9941 12.0009C45.9941 10.8983 46.8884 10.004 47.991 10.004C49.0937 10.004 49.988 10.8983 49.988 12.0009V16.0045C49.988 17.1071 49.0969 18.0014 47.991 18.0014C46.8852 18.0014 45.9941 17.1071 45.9941 16.0045V12.0009Z" fill="black"/>
<path d="M73.9964 15.998C74.6951 15.998 75.3683 15.8762 75.9933 15.6551C76.9485 15.3185 77.8012 14.7447 78.4615 14.0011C78.9807 13.4273 79.3846 12.7478 79.6475 12.0009C79.875 11.3759 79.9904 10.7027 79.9904 10.004V6.00045C79.9904 5.30167 79.8718 4.62854 79.6475 4.00349C79.048 2.29502 77.6922 0.945557 75.9901 0.34615C75.3651 0.118568 74.6919 0.00317383 73.9932 0.00317383C73.2944 0.00317383 72.6213 0.121773 71.9962 0.34615C71.2461 0.608992 70.5666 1.01287 69.9896 1.52894C69.2524 2.19566 68.6786 3.03867 68.3389 4.00349C68.1113 4.62854 67.9927 5.30167 67.9927 6.00045V28.0022C67.9927 28.7042 68.1145 29.3837 68.3389 30.0088C68.4094 30.2075 68.4895 30.4062 68.5761 30.5954C68.8261 31.1146 69.1466 31.5858 69.5248 32.0089C69.6691 32.1724 69.8262 32.3295 69.9896 32.4769C70.4095 32.8552 70.8871 33.1725 71.4096 33.4161C71.5923 33.5091 71.7911 33.5924 71.9962 33.6661C72.6213 33.8841 73.2912 34.0059 73.9932 34.0059C74.6951 34.0059 75.3651 33.8841 75.9901 33.6661C76.9453 33.3264 77.7979 32.7494 78.4583 32.0089C78.9775 31.432 79.3814 30.7524 79.6443 30.012C79.8718 29.3869 79.9872 28.7074 79.9872 28.0054V22.0081H75.9869V28.0054C75.9869 29.1081 75.0926 30.012 73.99 30.012C72.8873 30.012 71.993 29.1113 71.993 28.0054V16.0045H73.99L73.9964 15.998ZM71.9994 5.99724C71.9994 4.89459 72.8905 4.00029 73.9964 4.00029C75.1022 4.00029 75.9933 4.89459 75.9933 5.99724V10.0008C75.9933 11.1034 75.099 11.9977 73.9964 11.9977C72.8937 11.9977 71.9994 11.1034 71.9994 10.0008V5.99724Z" fill="black"/>
<path d="M53.9914 0V4.00032H39.9999V40H35.9996V4.00032H22.0017V0H53.9914Z" fill="black"/>
<path d="M65.9957 0V4.00032H61.9954C60.8895 4.00032 59.992 4.89142 59.992 5.99727V40H55.9917V6.00048C55.9917 5.2985 56.1135 4.62537 56.3379 4.00353C56.9405 2.29506 58.2868 0.948794 59.9952 0.346182C60.6203 0.121805 61.2966 0 61.9986 0H65.9989L65.9957 0Z" fill="black"/>
<path d="M79.9935 36.0093V40H61.9889V6.00049H65.9956V36.0093H79.9935Z" fill="black"/>
<path d="M115.653 10.0008C115.314 9.03599 114.74 8.19297 113.996 7.52946C113.419 7.01018 112.74 6.60631 111.999 6.34347C111.374 6.11588 110.695 6.00049 109.993 6.00049C109.291 6.00049 108.621 6.11909 107.996 6.34347C106.287 6.94287 104.941 8.28913 104.338 10.0008C104.117 10.6259 103.995 11.299 103.995 11.9978V33.9995C103.995 36.6087 105.665 38.8332 107.996 39.6538C108.621 39.8814 109.294 40 109.993 40C110.692 40 111.374 39.8782 111.999 39.6538C112.74 39.391 113.419 38.9871 113.996 38.4678C115.221 37.3716 115.993 35.7753 115.993 33.9995V12.001C115.993 11.3022 115.871 10.6291 115.653 10.004V10.0008ZM111.996 21.1684L111.945 21.2197V26.8772L111.996 26.8259V33.9995C111.996 35.1086 111.099 35.9965 109.99 35.9965C108.88 35.9965 107.993 35.1054 107.993 33.9995V12.001C107.993 10.8983 108.887 10.004 109.99 10.004C111.092 10.004 111.996 10.8983 111.996 12.001V21.1684Z" fill="black"/>
<path d="M129.988 5.99727V40H125.994V6.83068L126.049 6.77618L125.994 6.72169V6.00048C125.994 4.89783 125.097 4.00353 123.994 4.00353C123.779 4.00353 123.568 4.03878 123.372 4.09969C123.071 4.19585 122.798 4.36894 122.58 4.58691C122.218 4.94911 121.994 5.44915 121.994 6.00048V40.0032H117.99V5.99727C117.99 5.2985 118.112 4.62537 118.336 4.00032C118.936 2.29185 120.282 0.945589 121.994 0.342976C122.619 0.115394 123.289 0 123.991 0C124.693 0 125.369 0.118599 125.991 0.342976C126.735 0.605818 127.414 1.0097 127.988 1.52897C128.731 2.19248 129.312 3.0355 129.645 4.00032C129.866 4.62537 129.985 5.2985 129.985 5.99727H129.988Z" fill="black"/>
<path d="M126.049 6.77617L125.994 6.83066V6.72168L126.049 6.77617Z" fill="black"/>
<path d="M93.9914 33.179V33.2719L93.9434 33.2238L93.9914 33.179Z" fill="black"/>
<path d="M126.049 6.77617L125.994 6.83066V6.72168L126.049 6.77617Z" fill="black"/>
</g>
<defs>
<clipPath id="clip0_92_2223">
<rect width="135.988" height="40" fill="white"/>
</clipPath>
</defs>
</svg>
