<svg width="34" height="25" viewBox="0 0 34 25" fill="none" xmlns="http://www.w3.org/2000/svg">
<path d="M33.9584 2.7724V15.2491C33.9584 19.1191 31.6447 22.4611 28.2988 24.0187C27.0124 24.6183 25.5728 24.9525 24.0541 24.9525C22.5354 24.9525 21.0958 24.6174 19.8095 24.0197C18.7485 23.5247 17.7904 22.8514 16.9787 22.0387C16.1669 22.8514 15.2098 23.5247 14.1489 24.0197C12.8962 24.6028 11.4981 24.9361 10.0229 24.9516C9.98333 24.9516 9.94378 24.9516 9.90423 24.9516C9.86468 24.9516 9.82513 24.9516 9.78558 24.9516C8.61392 24.938 7.4917 24.7259 6.45253 24.3461C6.18261 24.2483 5.91762 24.1388 5.65956 24.0177C3.34096 22.9386 1.5197 21.0032 0.618953 18.6289C0.218512 17.5759 0 16.4368 0 15.2482V8.31622C0 6.78569 1.26658 5.54382 2.83077 5.54382C3.79183 5.54382 4.64215 6.01364 5.15234 6.73241C5.47269 7.18091 5.66055 7.72726 5.66055 8.31622V15.2482C5.66055 15.6744 5.72581 16.0851 5.84742 16.4726C5.90873 16.6673 5.98486 16.8562 6.07286 17.0374C6.24786 17.3958 6.47428 17.7261 6.74223 18.0196C7.114 18.4284 7.56882 18.7645 8.08 19.0038C8.2649 19.09 8.45671 19.1627 8.65446 19.2227C9.04996 19.3428 9.47017 19.4068 9.90522 19.4068C11.1629 19.4068 12.293 18.8721 13.0692 18.0196C13.7415 17.2844 14.1499 16.3128 14.1499 15.2472V5.54576C14.1499 4.01426 15.4175 2.7724 16.9797 2.7724C18.5419 2.7724 19.8104 4.01329 19.8104 5.54576V15.2491C19.8104 17.5459 21.7108 19.4077 24.0551 19.4077C26.3994 19.4077 28.2998 17.5459 28.2998 15.2491V2.7724C28.2998 1.24089 29.5664 0 31.1296 0C32.6928 0 33.9584 1.24089 33.9584 2.7724Z" fill="#1D1D1B"/>
</svg>
