<svg width="126" height="30" viewBox="0 0 126 30" fill="none" xmlns="http://www.w3.org/2000/svg">
<g clip-path="url(#clip0_645_3279)">
<path d="M42.8408 18.3559V3.38378C42.8408 1.73196 44.07 0.361459 45.6801 0.101074H46.793C48.4031 0.361459 49.6335 1.73196 49.6335 3.38378V18.3559C49.6335 21.112 51.9139 23.3462 54.7271 23.3462C57.5403 23.3462 59.8195 21.112 59.8195 18.3559V6.71065C59.8195 4.87285 61.3406 3.38378 63.2164 3.38378C65.0923 3.38378 66.6134 4.87285 66.6134 6.71065V26.6719C66.6134 28.5097 65.0935 29.9999 63.2164 29.9999C62.0632 29.9999 61.0428 29.4362 60.4294 28.5736C60.23 28.6817 60.026 28.7829 59.8195 28.8782C58.2759 29.5977 56.5495 29.9988 54.7271 29.9988C52.9046 29.9988 51.1771 29.5966 49.6335 28.8782C45.6184 27.0102 42.8408 22.9998 42.8408 18.3547V18.3559Z" fill="#1D1D1B"/>
<path d="M40.751 3.38376V18.3559C40.751 22.9998 37.9746 27.0102 33.9595 28.8793C32.4159 29.5989 30.6884 29.9999 28.8659 29.9999C27.0435 29.9999 25.316 29.5977 23.7723 28.8805C22.4992 28.2865 21.3495 27.4786 20.3754 26.5033C19.4013 27.4786 18.2528 28.2865 16.9797 28.8805C15.4764 29.5803 13.7987 29.9802 12.0284 29.9988C11.981 29.9988 11.9335 29.9988 11.8861 29.9988C11.8386 29.9988 11.7911 29.9988 11.7437 29.9988C10.3377 29.9825 8.99102 29.7279 7.74402 29.2722C7.4201 29.1548 7.10213 29.0235 6.79245 28.8782C4.01013 27.5832 1.82461 25.2607 0.74372 22.4116C0.263191 21.148 0.000976562 19.781 0.000976562 18.3547V10.0363C0.000976562 8.19971 1.52087 6.70947 3.3979 6.70947C4.55117 6.70947 5.57155 7.27325 6.18378 8.13578C6.5682 8.67398 6.79364 9.32959 6.79364 10.0363V18.3547C6.79364 18.8662 6.87195 19.359 7.01788 19.824C7.09145 20.0577 7.18281 20.2843 7.2884 20.5017C7.49841 20.9318 7.77012 21.3282 8.09166 21.6804C8.53778 22.171 9.08357 22.5743 9.69698 22.8614C9.91886 22.9649 10.149 23.0521 10.3863 23.1242C10.8609 23.2683 11.3652 23.345 11.8872 23.345C13.3965 23.345 14.7526 22.7034 15.684 21.6804C16.4908 20.7981 16.9809 19.6322 16.9809 18.3535V6.7118C16.9809 4.874 18.5019 3.38376 20.3766 3.38376C22.2512 3.38376 23.7735 4.87283 23.7735 6.7118V18.3559C23.7735 21.112 26.0539 23.3462 28.8671 23.3462C31.6803 23.3462 33.9607 21.112 33.9607 18.3559V3.38376C33.9607 1.54596 35.4806 0.0568848 37.3565 0.0568848C39.2323 0.0568848 40.7522 1.54596 40.7522 3.38376H40.751Z" fill="#1D1D1B"/>
<path d="M125.169 11.3651C125.165 11.2151 125.158 11.0663 125.149 10.9175C125.139 10.7688 125.126 10.6211 125.111 10.4735C125.08 10.1782 125.04 9.88763 124.986 9.60051C124.97 9.511 124.952 9.42033 124.934 9.33083C124.934 9.32502 124.932 9.32037 124.93 9.31455C124.91 9.2204 124.889 9.12508 124.866 9.03092C124.847 8.94955 124.826 8.86702 124.805 8.78565C124.8 8.76356 124.794 8.74148 124.788 8.71823C124.766 8.63686 124.742 8.55316 124.718 8.47179C124.692 8.37996 124.663 8.28813 124.635 8.1963C124.607 8.10563 124.576 8.01379 124.546 7.92429C124.514 7.83478 124.482 7.74411 124.449 7.6546C124.416 7.56626 124.381 7.47675 124.346 7.38841C124.31 7.30123 124.274 7.21288 124.236 7.1257C124.198 7.03852 124.16 6.95133 124.12 6.86531C124.081 6.78046 124.041 6.69327 123.999 6.60958C123.997 6.60493 123.994 6.59912 123.992 6.59447C123.91 6.4294 123.825 6.26666 123.736 6.10625C123.689 6.02255 123.644 5.94002 123.596 5.85981C123.551 5.78425 123.505 5.7087 123.459 5.6343C123.451 5.62035 123.443 5.6064 123.433 5.59245C123.388 5.52038 123.344 5.44947 123.297 5.37857C123.254 5.31231 123.211 5.24721 123.166 5.18211C123.1 5.08563 123.033 4.99031 122.966 4.89732C122.858 4.74969 122.747 4.60555 122.632 4.46373C122.587 4.40561 122.542 4.35098 122.495 4.29402C122.471 4.26496 122.446 4.2359 122.423 4.20916C122.372 4.14871 122.321 4.09059 122.269 4.03131C122.215 3.9697 122.16 3.90925 122.104 3.84764C121.961 3.69188 121.814 3.54076 121.662 3.39313C121.612 3.34431 121.563 3.29781 121.512 3.25016C121.434 3.17692 121.353 3.10253 121.273 3.03046C121.201 2.96768 121.13 2.90608 121.058 2.84447C120.978 2.77588 120.896 2.70963 120.815 2.6422C120.748 2.58989 120.684 2.53875 120.616 2.4876C120.543 2.42948 120.466 2.37252 120.39 2.31672C120.29 2.24233 120.188 2.17142 120.086 2.10284C120.034 2.06564 119.982 2.0296 119.928 1.99589C119.925 1.99357 119.92 1.99008 119.916 1.98776C119.839 1.93661 119.761 1.88662 119.684 1.8378C119.621 1.79712 119.558 1.75876 119.493 1.7204C119.484 1.71458 119.475 1.70994 119.465 1.70412C119.406 1.66925 119.348 1.63321 119.288 1.60067C119.227 1.56579 119.168 1.53208 119.107 1.49954C119.047 1.46582 118.986 1.43211 118.926 1.40073C118.85 1.36004 118.773 1.32168 118.697 1.28332C118.637 1.2531 118.578 1.22404 118.517 1.19614C118.468 1.17173 118.419 1.14732 118.368 1.12523C118.285 1.08571 118.2 1.04851 118.115 1.01131C118.081 0.996203 118.048 0.981091 118.014 0.968304C117.946 0.936919 117.878 0.909021 117.808 0.882285C117.785 0.872985 117.763 0.863686 117.74 0.855549C117.675 0.828813 117.611 0.803239 117.546 0.779991C117.504 0.763717 117.464 0.748605 117.422 0.734656C117.355 0.70792 117.287 0.684671 117.218 0.662585C117.198 0.654448 117.177 0.647474 117.155 0.640499C117.085 0.616088 117.014 0.592839 116.943 0.570753C116.903 0.556804 116.862 0.544017 116.822 0.532393C116.791 0.521931 116.76 0.512632 116.731 0.504495C116.662 0.483571 116.593 0.46381 116.524 0.444048C116.325 0.388252 116.124 0.338267 115.92 0.292932C115.867 0.281308 115.813 0.269684 115.76 0.25806C115.713 0.247598 115.668 0.238298 115.62 0.228999C115.536 0.212725 115.449 0.196451 115.364 0.181339C115.28 0.166228 115.194 0.152278 115.11 0.139492C115.099 0.137167 115.089 0.136004 115.078 0.134842C114.986 0.120893 114.895 0.108106 114.804 0.0964817C114.79 0.0941569 114.775 0.0929944 114.76 0.0906696C114.667 0.0790453 114.575 0.0685834 114.481 0.0592839C114.47 0.0592839 114.458 0.0569591 114.448 0.0557967C114.371 0.0488221 114.292 0.0418475 114.215 0.0360353C114.181 0.0325481 114.146 0.0302232 114.113 0.0278983C114.042 0.0232486 113.97 0.0185989 113.897 0.0151116C113.882 0.0151116 113.866 0.0151116 113.85 0.0127867C113.769 0.00929944 113.687 0.00581215 113.605 0.00348729C113.577 0.00348729 113.548 0.00348729 113.521 0.00348729C113.437 0.00116243 113.35 0 113.265 0C113.179 0 113.094 0.00116243 113.01 0.00348729C112.981 0.00348729 112.952 0.00348729 112.924 0.00348729C112.841 0.00581215 112.757 0.00929944 112.675 0.0127867C112.662 0.0139492 112.65 0.0139492 112.638 0.0151116C112.565 0.0185989 112.49 0.0232486 112.418 0.0278983C112.383 0.0302232 112.349 0.0337105 112.316 0.0360353C112.239 0.0418475 112.16 0.0488221 112.083 0.0557967C112.072 0.0557967 112.061 0.0581215 112.05 0.0592839C111.95 0.0697458 111.849 0.0813701 111.751 0.0929944C111.651 0.105781 111.552 0.11973 111.454 0.134842C111.442 0.136004 111.432 0.137167 111.421 0.139492C111.337 0.152278 111.251 0.166228 111.167 0.181339C111.082 0.196451 110.995 0.212725 110.911 0.228999C110.867 0.238298 110.823 0.246435 110.779 0.255735C110.712 0.270846 110.645 0.284795 110.579 0.299907C110.376 0.346404 110.176 0.396389 109.977 0.453348C109.975 0.453348 109.974 0.45451 109.971 0.45451C109.869 0.483571 109.766 0.514957 109.664 0.54518C109.562 0.577728 109.457 0.611438 109.357 0.645149C109.259 0.678859 109.162 0.713732 109.067 0.747443C109.055 0.752092 109.045 0.75558 109.033 0.760229C108.939 0.796265 108.844 0.831138 108.751 0.869498C108.652 0.910183 108.553 0.949706 108.455 0.992716C108.358 1.03573 108.259 1.07874 108.163 1.12407C108.1 1.15313 108.037 1.18335 107.976 1.21241C107.851 1.27402 107.728 1.33563 107.605 1.40073C107.601 1.40422 107.596 1.40654 107.591 1.4077C107.298 1.56579 107.012 1.73318 106.733 1.9122C106.723 1.91917 106.713 1.92615 106.702 1.93196C106.534 2.04123 106.369 2.15515 106.206 2.27255C106.151 2.31324 106.096 2.35276 106.04 2.39461C105.986 2.43529 105.932 2.47598 105.878 2.51782C105.823 2.56083 105.77 2.60268 105.716 2.64569C105.663 2.6887 105.611 2.73055 105.559 2.77472C105.505 2.81889 105.454 2.8619 105.402 2.90724C105.247 3.04092 105.096 3.17808 104.948 3.31874C104.8 3.46056 104.656 3.6047 104.516 3.75349C104.507 3.76395 104.498 3.77325 104.487 3.78371C104.487 3.78487 104.487 3.78604 104.485 3.7872C104.396 3.92204 104.287 4.04293 104.162 4.14639C104.161 4.14639 104.161 4.14871 104.16 4.14988C103.863 4.39631 103.48 4.5451 103.059 4.5451C102.119 4.5451 101.357 3.79882 101.357 2.87818V3.33501C101.357 1.49372 99.8338 0.00116243 97.9556 0.00116243C96.0774 0.00116243 94.5527 1.49372 94.5527 3.33501V26.6673C94.5527 28.5086 96.0762 30.0012 97.9556 30.0012C99.835 30.0012 101.357 28.5086 101.357 26.6673V20.475C101.357 19.5544 102.119 18.8093 103.059 18.8093C103.514 18.8093 103.926 18.9848 104.232 19.2696C104.305 19.3359 104.37 19.4091 104.428 19.487C105.929 21.1132 107.89 22.3222 110.109 22.9185C110.232 22.9348 110.352 22.965 110.466 23.008C110.466 23.008 110.466 23.0091 110.468 23.0091C110.525 23.0231 110.58 23.0359 110.637 23.0475C110.694 23.0603 110.75 23.0731 110.806 23.0847C110.863 23.0963 110.92 23.108 110.977 23.1184C111.038 23.13 111.097 23.1417 111.156 23.1521C111.254 23.1696 111.353 23.1858 111.452 23.1998C111.546 23.2149 111.642 23.2277 111.737 23.2405C111.745 23.2405 111.753 23.2416 111.76 23.2428C111.855 23.2544 111.951 23.2649 112.048 23.2753C112.129 23.2835 112.212 23.2905 112.296 23.2974C112.421 23.3079 112.548 23.316 112.675 23.3218C112.765 23.3265 112.858 23.33 112.949 23.3323H112.974C113.07 23.3346 113.168 23.3358 113.264 23.3358C113.36 23.3358 113.458 23.3346 113.554 23.3323H113.578C113.668 23.33 113.76 23.3265 113.85 23.3218C113.977 23.316 114.103 23.3079 114.227 23.2974C114.311 23.2916 114.397 23.2835 114.48 23.2753C114.574 23.266 114.666 23.2556 114.759 23.244C114.774 23.2416 114.788 23.2405 114.803 23.2381C114.894 23.2265 114.985 23.2137 115.077 23.1998C115.175 23.1858 115.274 23.1696 115.371 23.1521C115.431 23.1417 115.491 23.13 115.551 23.1184C115.608 23.108 115.665 23.0963 115.722 23.0847C115.779 23.0731 115.835 23.0603 115.892 23.0475C115.949 23.0359 116.003 23.0231 116.06 23.0091C116.06 23.0091 116.06 23.008 116.063 23.008C116.178 22.965 116.296 22.9347 116.423 22.9173H116.427C121.468 21.5596 125.171 17.0377 125.171 11.6673C125.171 11.5673 125.171 11.4662 125.168 11.3662L125.169 11.3651ZM118.345 12.1462C118.338 12.2241 118.329 12.3032 118.317 12.381C118.305 12.4578 118.292 12.5356 118.277 12.6124C118.256 12.7147 118.234 12.817 118.207 12.9158C118.196 12.9564 118.184 12.9948 118.173 13.0343C118.153 13.1041 118.132 13.1727 118.108 13.2412C118.039 13.4458 117.957 13.6423 117.864 13.8341C117.809 13.9434 117.752 14.0503 117.69 14.1561C117.629 14.2595 117.565 14.363 117.495 14.463C117.448 14.5292 117.402 14.5943 117.352 14.6594C117.279 14.7547 117.203 14.8489 117.122 14.9396C117.095 14.9698 117.068 15 117.041 15.0291C116.986 15.0883 116.93 15.1465 116.872 15.2023C116.439 15.6266 115.929 15.9753 115.363 16.2252C115.287 16.2589 115.212 16.2915 115.136 16.3194C114.556 16.5425 113.925 16.6669 113.264 16.6669C111.857 16.6669 110.58 16.1078 109.657 15.2023C109.513 15.0616 109.377 14.9117 109.251 14.7536C109.2 14.6908 109.151 14.6269 109.104 14.5606C109.056 14.4955 109.011 14.4292 108.966 14.3607C108.944 14.327 108.922 14.2932 108.901 14.2595C108.857 14.1898 108.817 14.1212 108.778 14.0491C108.757 14.0131 108.738 13.9771 108.719 13.9422C108.674 13.8573 108.633 13.7701 108.592 13.6818C108.575 13.6434 108.558 13.6051 108.541 13.5656C108.526 13.5284 108.511 13.4935 108.496 13.4563C108.496 13.4528 108.494 13.4505 108.494 13.4482C108.481 13.4133 108.468 13.3784 108.455 13.3447C108.452 13.3401 108.451 13.3342 108.45 13.3296C108.431 13.2738 108.412 13.2192 108.394 13.1634C108.386 13.1378 108.378 13.1111 108.371 13.0866C108.367 13.075 108.363 13.0634 108.36 13.0518C108.346 13.0041 108.333 12.9576 108.321 12.91C108.314 12.8855 108.308 12.8623 108.303 12.8379C108.296 12.8135 108.291 12.7902 108.285 12.7658C108.28 12.7472 108.277 12.7298 108.273 12.7112C108.27 12.7007 108.267 12.6903 108.266 12.6798C108.264 12.6682 108.261 12.6577 108.259 12.6472C108.254 12.6263 108.251 12.6042 108.247 12.5833C108.242 12.5647 108.239 12.5449 108.237 12.5264C108.234 12.5112 108.231 12.4973 108.228 12.4822C108.228 12.4729 108.226 12.4624 108.225 12.4531C108.221 12.4403 108.219 12.4299 108.219 12.4182C108.218 12.4171 108.218 12.4148 108.218 12.4136C108.213 12.3834 108.208 12.3531 108.204 12.3241C108.2 12.2915 108.196 12.259 108.193 12.2264C108.193 12.2218 108.19 12.2171 108.19 12.2125C108.19 12.2067 108.19 12.1997 108.19 12.1939H108.189C108.178 12.1021 108.172 12.0079 108.167 11.9149C108.163 11.8324 108.161 11.7475 108.161 11.6638C108.161 11.5743 108.163 11.4848 108.168 11.3965C108.17 11.3523 108.174 11.3093 108.177 11.2651C108.181 11.2233 108.184 11.1826 108.188 11.1419C108.188 11.1326 108.19 11.1245 108.191 11.1152C108.191 11.1105 108.193 11.1059 108.194 11.1012C108.197 11.0675 108.201 11.035 108.206 11.0036C108.209 10.9733 108.214 10.9431 108.219 10.9141C108.219 10.9129 108.219 10.9106 108.22 10.9094C108.22 10.8978 108.222 10.8873 108.226 10.8745C108.226 10.8652 108.228 10.8548 108.229 10.8455C108.232 10.8304 108.235 10.8164 108.238 10.8013C108.24 10.7827 108.244 10.7629 108.248 10.7443C108.252 10.7234 108.256 10.7013 108.26 10.6804C108.263 10.6699 108.265 10.6595 108.267 10.6479C108.267 10.6374 108.271 10.6269 108.275 10.6165C108.278 10.5979 108.282 10.5804 108.286 10.5618C108.292 10.5363 108.298 10.5107 108.304 10.4863C108.314 10.4456 108.324 10.4061 108.335 10.3666C108.346 10.3247 108.358 10.284 108.371 10.2422C108.382 10.2015 108.396 10.1608 108.41 10.1201C108.418 10.0934 108.428 10.0666 108.437 10.0411C108.442 10.0271 108.447 10.0132 108.451 9.99923C108.451 9.99923 108.454 9.98876 108.456 9.98411C108.469 9.94924 108.482 9.91437 108.495 9.88066C108.495 9.88066 108.495 9.87601 108.498 9.87252C108.512 9.83532 108.527 9.80045 108.543 9.76325C108.559 9.72373 108.576 9.68537 108.594 9.64701C108.634 9.55866 108.676 9.47148 108.721 9.38663C108.74 9.35059 108.759 9.31455 108.779 9.27968C108.818 9.20994 108.858 9.14019 108.902 9.07044C108.922 9.03557 108.945 9.00186 108.967 8.96815C109.013 8.89957 109.058 8.83331 109.105 8.76821C109.153 8.70195 109.201 8.63802 109.252 8.57525C109.378 8.41716 109.513 8.26721 109.658 8.12655C109.688 8.09633 109.717 8.06843 109.745 8.04286C109.832 7.96032 109.925 7.88012 110.019 7.80456C110.051 7.77898 110.084 7.75341 110.115 7.73016C110.179 7.67901 110.244 7.63252 110.311 7.58602H110.312C110.378 7.53836 110.446 7.49419 110.515 7.45118C110.55 7.42909 110.585 7.40817 110.619 7.38724C110.685 7.34772 110.752 7.31169 110.82 7.27449C110.888 7.23729 110.956 7.20358 111.026 7.16987C111.072 7.14778 111.119 7.1257 111.166 7.10477C111.355 7.02224 111.548 6.94901 111.749 6.88856C111.868 6.85136 111.989 6.81882 112.114 6.79208C112.484 6.70839 112.87 6.66421 113.266 6.66421C113.662 6.66421 114.071 6.71187 114.449 6.79906C114.55 6.8223 114.651 6.84904 114.748 6.8781C114.881 6.91762 115.011 6.96063 115.138 7.01062C115.214 7.04084 115.29 7.07223 115.365 7.10477C115.931 7.3547 116.441 7.70343 116.874 8.12771C116.918 8.17072 116.961 8.21373 117.004 8.25907C117.058 8.31603 117.11 8.37415 117.161 8.43343C117.218 8.49737 117.272 8.56362 117.323 8.63105C117.345 8.65894 117.365 8.68568 117.387 8.71241C117.415 8.74961 117.444 8.78681 117.47 8.82633C117.488 8.85307 117.507 8.88097 117.526 8.90654C117.562 8.96001 117.597 9.01348 117.63 9.06928C117.737 9.24248 117.834 9.4215 117.919 9.60516C117.987 9.75279 118.048 9.90391 118.101 10.0585C118.129 10.1352 118.154 10.2143 118.176 10.2933C118.19 10.3433 118.203 10.3921 118.216 10.4421C118.229 10.4909 118.241 10.5398 118.252 10.5897C118.267 10.6548 118.28 10.7188 118.292 10.7862C118.305 10.8513 118.315 10.9175 118.324 10.985C118.356 11.2058 118.372 11.4337 118.372 11.6627C118.372 11.8242 118.364 11.9847 118.348 12.1427L118.345 12.1462Z" fill="#1D1D1B"/>
<path d="M85.7375 1.17747C84.1938 0.457923 82.4663 0.0568848 80.6439 0.0568848C78.8214 0.0568848 77.0939 0.460248 75.5503 1.17863C71.5352 3.04666 68.7588 7.05704 68.7588 11.7009V26.673C68.7588 28.5109 70.2787 30.0011 72.1557 30.0011C74.0327 30.0011 75.5514 28.512 75.5514 26.673V24.576C75.5514 23.6577 76.3132 22.9126 77.2505 22.9126C77.33 22.9126 77.4083 22.9184 77.4842 22.9289C77.4842 22.9289 77.4866 22.9289 77.4878 22.9289C77.6148 22.9451 77.7381 22.9765 77.8544 23.0207C78.7502 23.2323 79.684 23.3439 80.6451 23.3439C81.6073 23.3439 82.5411 23.2323 83.4369 23.0207H83.4381C83.5543 22.9765 83.6754 22.9463 83.8023 22.9289C83.8023 22.9289 83.8031 22.9289 83.8047 22.9289C83.8047 22.9289 83.807 22.9289 83.8082 22.9289C83.8842 22.9184 83.9625 22.9126 84.042 22.9126C84.9793 22.9126 85.7398 23.6577 85.7398 24.576V24.8969C85.7398 25.5501 85.9321 26.1593 86.2655 26.673C86.8658 27.6053 87.9277 28.2249 89.1368 28.2249C90.347 28.2249 91.4077 27.6053 92.0081 26.673C92.3403 26.1593 92.5337 25.5513 92.5337 24.8969V11.7009C92.5337 7.05588 89.7561 3.04549 85.741 1.17747H85.7375ZM80.6439 16.6913C77.8319 16.6913 75.5503 14.4571 75.5503 11.7009C75.5503 8.94483 77.8319 6.71064 80.6439 6.71064C83.457 6.71064 85.7375 8.94483 85.7375 11.7009C85.7375 14.4571 83.457 16.6913 80.6439 16.6913Z" fill="#1D1D1B"/>
</g>
<defs>
<clipPath id="clip0_645_3279">
<rect width="125.172" height="30" fill="white"/>
</clipPath>
</defs>
</svg>
