<?xml version="1.0" encoding="UTF-8"?>
<svg id="Layer_2" xmlns="http://www.w3.org/2000/svg" viewBox="0 0 1000 244.63">
  <defs>
    <style>
      .cls-1 {
        fill: #1d1d1b;
      }
    </style>
  </defs>
  <g id="Layer_4">
    <path class="cls-1" d="M342.25,149.68V27.59c0-13.47,9.82-24.65,22.68-26.77h8.89c12.87,2.12,22.69,13.3,22.69,26.77v122.09c0,22.48,18.22,40.7,40.7,40.7s40.69-18.22,40.69-40.7V54.73c0-14.99,12.15-27.13,27.13-27.13s27.13,12.14,27.13,27.13v162.77c0,14.99-12.15,27.13-27.13,27.13-9.22,0-17.36-4.6-22.26-11.63-1.6.88-3.22,1.71-4.87,2.49-12.33,5.87-26.12,9.14-40.69,9.14s-28.36-3.28-40.7-9.14c-32.08-15.23-54.27-47.93-54.27-85.81ZM298.43.46c-14.98,0-27.12,12.14-27.12,27.13v122.09c0,22.48-18.23,40.7-40.7,40.7s-40.7-18.22-40.7-40.7V54.73c0-14.99-12.15-27.13-27.13-27.13s-27.13,12.14-27.13,27.13v94.95c0,10.42-3.91,19.93-10.36,27.12-7.44,8.33-18.27,13.57-30.33,13.57-4.18,0-8.2-.63-11.99-1.8-1.9-.58-3.74-1.3-5.51-2.14-4.9-2.34-9.25-5.63-12.82-9.63-2.57-2.87-4.74-6.1-6.42-9.61-.84-1.77-1.57-3.62-2.16-5.53-1.16-3.79-1.79-7.82-1.79-11.99v-67.83c0-5.76-1.8-11.1-4.87-15.5-4.89-7.03-13.04-11.63-22.25-11.63-14.99,0-27.13,12.14-27.13,27.12v67.83c0,11.63,2.09,22.78,5.93,33.08,8.63,23.23,26.1,42.17,48.33,52.73,2.48,1.18,5.01,2.25,7.6,3.21,9.97,3.72,20.72,5.79,31.96,5.92.38,0,.76,0,1.14,0s.76,0,1.14,0c14.14-.16,27.55-3.42,39.56-9.12,10.17-4.84,19.35-11.43,27.13-19.38,7.78,7.95,16.96,14.54,27.13,19.38,12.33,5.86,26.13,9.13,40.7,9.13s28.36-3.28,40.7-9.14c32.08-15.24,54.26-47.94,54.26-85.81V27.59c0-14.99-12.14-27.13-27.13-27.13ZM1000,95.13c0,43.79-29.58,80.67-69.86,91.73h0s0,0-.02,0c-1.01.14-1.96.39-2.88.74,0,0,0,0-.02,0h0c-.45.11-.89.22-1.34.31-.45.1-.9.21-1.35.3s-.91.19-1.36.27c-.48.09-.96.19-1.44.27-.78.14-1.56.27-2.35.39-.73.11-1.46.22-2.19.31-.11.02-.23.03-.35.05-.74.09-1.48.18-2.23.25-.67.07-1.34.13-2.02.18-1,.08-2,.15-3.02.2-.72.04-1.45.07-2.17.08h-.19c-.77.02-1.54.03-2.32.03s-1.54,0-2.31-.03h-.2c-.73-.02-1.47-.05-2.19-.08-1.02-.05-2.03-.11-3.04-.2-.67-.06-1.33-.11-1.98-.18-.77-.08-1.53-.17-2.29-.26-.06,0-.12-.02-.19-.02-.76-.1-1.52-.21-2.28-.33-.79-.11-1.58-.24-2.36-.39-.47-.08-.95-.18-1.43-.27-.45-.08-.91-.18-1.36-.27s-.9-.2-1.35-.3c-.45-.09-.89-.2-1.34-.31h0s0,0-.02,0c-.9-.36-1.86-.6-2.85-.73-17.73-4.86-33.4-14.73-45.39-27.98-.46-.64-.99-1.23-1.56-1.78-2.44-2.32-5.74-3.75-9.37-3.75-7.51,0-13.6,6.08-13.6,13.59v50.49c0,15.02-12.17,27.18-27.18,27.18s-27.18-12.17-27.18-27.18V27.18c0-15.02,12.17-27.18,27.18-27.18s27.18,12.17,27.18,27.18v-3.72c0,7.51,6.09,13.6,13.6,13.6,3.36,0,6.42-1.21,8.79-3.23,0,0,0-.02.02-.03,1-.84,1.86-1.82,2.58-2.92,0,0,.02-.02.02-.03.08-.08.16-.16.23-.24,1.12-1.21,2.28-2.39,3.45-3.54,1.18-1.15,2.39-2.27,3.63-3.36.41-.37.83-.72,1.25-1.08.41-.36.84-.71,1.26-1.05.42-.35.86-.7,1.29-1.04.43-.34.87-.68,1.3-1.01.44-.34.88-.67,1.33-1,1.3-.95,2.61-1.88,3.96-2.77.08-.05.16-.1.24-.16,2.23-1.46,4.51-2.82,6.85-4.11.04,0,.08-.03.11-.06.98-.53,1.97-1.03,2.96-1.53.49-.24,1-.49,1.5-.72.77-.37,1.55-.72,2.33-1.07.79-.35,1.57-.68,2.37-1.01.74-.31,1.49-.6,2.25-.89.09-.04.18-.07.27-.1.76-.28,1.53-.56,2.31-.84.81-.28,1.64-.56,2.45-.82.82-.25,1.64-.51,2.45-.74.02,0,.03,0,.05,0,1.59-.46,3.19-.87,4.81-1.25.53-.12,1.06-.24,1.6-.36.35-.07.71-.14,1.05-.22.68-.13,1.36-.26,2.05-.39.68-.12,1.35-.24,2.03-.34.08-.02.17-.03.26-.04.78-.12,1.57-.24,2.37-.34.79-.09,1.59-.19,2.39-.27.08,0,.18-.02.26-.03.62-.06,1.24-.11,1.86-.16.27-.02.55-.05.82-.07.58-.04,1.18-.08,1.77-.1.09,0,.19,0,.29-.02.66-.03,1.33-.06,1.99-.08.23,0,.46,0,.69,0,.68-.02,1.35-.03,2.04-.03s1.37,0,2.05.03c.23,0,.45,0,.68,0,.66.02,1.31.05,1.96.08.13,0,.25,0,.38.02.57.03,1.15.07,1.72.1.27.02.55.04.82.07.62.05,1.24.1,1.86.16.08,0,.18.02.26.03.75.08,1.49.16,2.23.25.12.02.24.03.35.05.73.09,1.46.2,2.19.31.08,0,.17.02.25.04.68.1,1.35.22,2.03.34.69.12,1.37.25,2.05.39.38.08.74.15,1.12.24.42.09.86.19,1.28.28,1.63.37,3.23.78,4.82,1.23h0c.55.16,1.1.32,1.65.49.24.07.49.14.73.23.32.09.65.2.97.31.56.18,1.14.37,1.69.56.17.06.34.11.5.18.55.19,1.09.38,1.63.59.33.11.66.24.99.37.52.2,1.03.4,1.55.62.18.07.36.14.54.22.55.23,1.1.45,1.65.71.27.1.54.23.81.35.68.3,1.35.61,2.02.93.4.19.8.39,1.19.58.48.24.96.47,1.43.71.61.31,1.22.63,1.83.96.48.26.97.54,1.45.81.48.27.96.55,1.44.83.48.27.95.56,1.42.85.08.05.15.08.22.13.52.31,1.02.63,1.52.96.62.39,1.24.81,1.86,1.22.03.02.07.05.09.07.42.28.85.57,1.26.87.82.56,1.63,1.15,2.43,1.75.61.45,1.22.92,1.81,1.39.54.41,1.05.84,1.58,1.26.66.55,1.31,1.09,1.95,1.65.57.5,1.15,1.01,1.71,1.51.65.59,1.29,1.19,1.92,1.8.4.39.8.77,1.19,1.17,1.21,1.2,2.39,2.44,3.54,3.7.44.5.88,1,1.32,1.49.41.48.83.96,1.23,1.45.19.23.39.46.57.7.38.46.74.91,1.1,1.38.91,1.16,1.8,2.33,2.66,3.54.54.76,1.07,1.53,1.6,2.32.36.53.71,1.06,1.04,1.6.38.57.73,1.16,1.09,1.74.08.11.14.23.21.34.37.61.73,1.22,1.09,1.84.39.66.75,1.33,1.12,2.01.71,1.31,1.39,2.63,2.05,3.98.02.04.04.08.06.12.33.69.66,1.39.97,2.09.32.71.63,1.41.93,2.12.3.71.59,1.43.87,2.14.29.72.56,1.45.83,2.17.27.73.53,1.47.78,2.2.24.73.49,1.48.71,2.22.24.75.46,1.49.67,2.25.19.67.38,1.34.55,2.01.05.19.09.37.13.55.17.67.34,1.34.49,2,.18.77.35,1.54.51,2.31,0,.05.02.08.03.13.14.73.28,1.47.41,2.2.42,2.34.75,4.71,1,7.12.12,1.2.23,2.41.3,3.62.08,1.21.13,2.43.16,3.65.02.82.03,1.64.03,2.45ZM945.65,95.13c0-1.87-.12-3.72-.38-5.53-.08-.55-.15-1.09-.25-1.62-.09-.55-.2-1.07-.32-1.6-.08-.4-.18-.81-.28-1.2-.1-.4-.21-.81-.32-1.21-.18-.65-.38-1.29-.6-1.92-.42-1.26-.91-2.49-1.45-3.7-.69-1.5-1.46-2.96-2.31-4.37-.27-.45-.55-.89-.84-1.33-.15-.22-.3-.44-.44-.66-.22-.32-.44-.63-.67-.93-.17-.23-.33-.44-.51-.67-.4-.55-.84-1.09-1.29-1.61-.4-.48-.83-.96-1.26-1.42-.34-.37-.69-.72-1.03-1.07-3.46-3.46-7.53-6.3-12.05-8.34-.6-.27-1.2-.53-1.81-.77-1.02-.4-2.06-.76-3.12-1.08-.78-.24-1.58-.46-2.39-.65-3.03-.71-6.2-1.1-9.45-1.1s-6.24.36-9.21,1.04c-.99.23-1.96.49-2.92.79-1.6.5-3.15,1.09-4.65,1.77-.38.17-.75.35-1.12.53-.55.27-1.1.55-1.65.86-.54.3-1.07.6-1.6.92-.28.17-.55.34-.84.52-.55.35-1.09.71-1.62,1.1h0c-.53.38-1.05.76-1.56,1.18-.25.2-.52.4-.77.61-.75.62-1.49,1.27-2.19,1.95-.23.22-.46.44-.7.69-1.16,1.15-2.24,2.37-3.24,3.66-.4.51-.8,1.03-1.18,1.57-.38.53-.74,1.07-1.1,1.63-.18.27-.36.55-.52.84-.35.56-.68,1.13-.99,1.7-.16.29-.31.58-.46.87-.36.7-.7,1.4-1.02,2.12-.14.31-.27.63-.4.95-.12.3-.24.59-.36.89,0,.03-.02.05-.02.07h0c-.1.28-.21.56-.31.85-.02.04-.03.08-.04.12h0c-.04.11-.08.23-.11.34-.08.22-.15.43-.22.65-.11.33-.22.67-.31,1-.1.34-.2.68-.28,1.02-.08.32-.17.65-.24.98-.05.2-.09.4-.14.61-.04.15-.07.29-.09.44-.03.08-.05.17-.06.25-.02.09-.04.18-.06.26-.04.17-.07.35-.09.52-.04.15-.07.31-.08.46-.02.12-.05.24-.07.36,0,.07-.02.16-.03.24-.03.1-.05.19-.05.28,0,0,0,.03,0,.04-.04.24-.08.49-.1.73-.04.26-.07.53-.09.8,0,.04-.02.08-.02.11,0,.08-.02.14-.03.22-.03.33-.06.67-.08,1.01-.03.36-.06.71-.08,1.07-.04.72-.06,1.45-.06,2.18,0,.69.02,1.37.05,2.05.05.76.09,1.52.18,2.28h0s0,.1,0,.15c0,.04,0,.08.02.11.03.27.06.54.09.8.03.24.07.49.1.73,0,0,0,.03,0,.04,0,.09.02.18.05.28,0,.08.02.16.03.24.02.12.05.24.07.36.02.15.05.31.08.46.03.17.06.35.09.52.02.08.04.17.06.26,0,.08.03.17.06.25.03.15.06.29.09.44.05.2.08.39.14.58.04.2.08.39.14.58.09.39.2.77.31,1.16.03.09.06.19.08.28.06.21.12.42.19.63.14.45.29.9.44,1.35h0s.02.08.04.12c.1.28.21.56.31.85h0s0,.04.02.07c.11.3.24.59.36.89.13.32.26.64.4.95.32.72.66,1.43,1.02,2.13.15.29.3.58.46.87.31.58.64,1.15.99,1.71.17.28.34.55.52.83.36.56.72,1.1,1.1,1.63.38.54.77,1.06,1.18,1.57,1.01,1.29,2.1,2.51,3.24,3.66,7.38,7.38,17.57,11.94,28.82,11.94,5.28,0,10.32-1.01,14.96-2.83.61-.24,1.21-.5,1.81-.77,4.52-2.04,8.59-4.88,12.05-8.34.46-.45.91-.93,1.35-1.41.22-.24.43-.49.65-.73.65-.74,1.26-1.5,1.84-2.29.39-.53.77-1.06,1.14-1.6.55-.82,1.07-1.65,1.56-2.5.49-.86.95-1.73,1.38-2.62.75-1.56,1.41-3.17,1.96-4.83.19-.55.36-1.12.52-1.68.08-.32.18-.64.26-.97.22-.81.39-1.64.55-2.47.12-.63.23-1.26.32-1.89.09-.64.17-1.28.23-1.92.13-1.29.19-2.6.19-3.91ZM739.22,95.41v107.6c0,5.33-1.54,10.3-4.2,14.48-4.8,7.6-13.27,12.65-22.94,12.65-9.66,0-18.14-5.05-22.94-12.65-2.66-4.19-4.2-9.15-4.2-14.48v-2.62c0-7.49-6.07-13.56-13.56-13.56-.64,0-1.26.05-1.87.13,0,0-.02,0-.03,0t-.02,0c-1.01.14-1.98.39-2.91.75h0c-7.15,1.73-14.61,2.64-22.3,2.64s-15.14-.91-22.29-2.64h0c-.93-.37-1.91-.62-2.93-.75,0,0-.02,0-.03,0-.61-.08-1.23-.13-1.87-.13-7.49,0-13.57,6.07-13.57,13.56v17.1c0,14.99-12.14,27.13-27.12,27.13s-27.13-12.14-27.13-27.13v-122.09c0-37.87,22.18-70.57,54.26-85.8,12.33-5.87,26.13-9.15,40.7-9.15s28.36,3.28,40.7,9.14c32.08,15.23,54.27,47.93,54.27,85.81ZM684.95,95.41c0-22.48-18.22-40.7-40.7-40.7s-40.7,18.22-40.7,40.7,18.23,40.7,40.7,40.7,40.7-18.22,40.7-40.7Z"/>
  </g>
</svg>