<?xml version="1.0" encoding="UTF-8"?>
<svg id="Layer_2" xmlns="http://www.w3.org/2000/svg" viewBox="0 0 325.56 244.17">
  <defs>
    <style>
      .cls-1 {
        fill: #1d1d1b;
      }
    </style>
  </defs>
  <g id="Layer_4">
    <path class="cls-1" d="M298.43,0c-14.98,0-27.12,12.14-27.12,27.13v122.09c0,22.48-18.23,40.7-40.7,40.7s-40.7-18.22-40.7-40.7V54.27c0-14.99-12.15-27.13-27.13-27.13s-27.13,12.14-27.13,27.13v94.95c0,10.42-3.91,19.93-10.36,27.12-7.44,8.33-18.27,13.57-30.33,13.57-4.18,0-8.2-.63-11.99-1.8-1.9-.58-3.74-1.3-5.51-2.14-4.9-2.34-9.25-5.63-12.82-9.63-2.57-2.87-4.74-6.1-6.42-9.61-.84-1.77-1.57-3.62-2.16-5.53-1.16-3.79-1.79-7.82-1.79-11.99v-67.83c0-5.76-1.8-11.1-4.87-15.5-4.89-7.03-13.04-11.63-22.25-11.63-14.99,0-27.13,12.14-27.13,27.12v67.83c0,11.63,2.09,22.78,5.93,33.08,8.63,23.23,26.1,42.17,48.33,52.73,2.48,1.18,5.01,2.25,7.6,3.21,9.97,3.72,20.72,5.79,31.96,5.92.38,0,.76,0,1.14,0s.76,0,1.14,0c14.14-.16,27.55-3.42,39.56-9.12,10.17-4.84,19.35-11.43,27.13-19.38,7.78,7.95,16.96,14.54,27.13,19.38,12.33,5.86,26.13,9.13,40.7,9.13s28.36-3.28,40.7-9.14c32.08-15.24,54.26-47.94,54.26-85.81V27.13c0-14.99-12.14-27.13-27.13-27.13Z"/>
  </g>
</svg>